%TF.GenerationSoftware,KiCad,Pcbnew,9.0.2*%
%TF.CreationDate,2025-06-16T16:22:31-03:00*%
%TF.ProjectId,dataLogger,64617461-4c6f-4676-9765-722e6b696361,rev?*%
%TF.SameCoordinates,Original*%
%TF.FileFunction,Legend,Top*%
%TF.FilePolarity,Positive*%
%FSLAX46Y46*%
G04 Gerber Fmt 4.6, Leading zero omitted, Abs format (unit mm)*
G04 Created by KiCad (PCBNEW 9.0.2) date 2025-06-16 16:22:31*
%MOMM*%
%LPD*%
G01*
G04 APERTURE LIST*
%ADD10C,0.150000*%
%ADD11C,0.080000*%
%ADD12C,0.127000*%
%ADD13C,0.120000*%
%ADD14C,0.200000*%
%ADD15C,0.010000*%
G04 APERTURE END LIST*
D10*
X154539285Y-132761009D02*
X154682142Y-132808628D01*
X154682142Y-132808628D02*
X154729761Y-132856247D01*
X154729761Y-132856247D02*
X154777380Y-132951485D01*
X154777380Y-132951485D02*
X154777380Y-133094342D01*
X154777380Y-133094342D02*
X154729761Y-133189580D01*
X154729761Y-133189580D02*
X154682142Y-133237200D01*
X154682142Y-133237200D02*
X154586904Y-133284819D01*
X154586904Y-133284819D02*
X154205952Y-133284819D01*
X154205952Y-133284819D02*
X154205952Y-132284819D01*
X154205952Y-132284819D02*
X154539285Y-132284819D01*
X154539285Y-132284819D02*
X154634523Y-132332438D01*
X154634523Y-132332438D02*
X154682142Y-132380057D01*
X154682142Y-132380057D02*
X154729761Y-132475295D01*
X154729761Y-132475295D02*
X154729761Y-132570533D01*
X154729761Y-132570533D02*
X154682142Y-132665771D01*
X154682142Y-132665771D02*
X154634523Y-132713390D01*
X154634523Y-132713390D02*
X154539285Y-132761009D01*
X154539285Y-132761009D02*
X154205952Y-132761009D01*
X155063095Y-132284819D02*
X155634523Y-132284819D01*
X155348809Y-133284819D02*
X155348809Y-132284819D01*
X156491666Y-133284819D02*
X155920238Y-133284819D01*
X156205952Y-133284819D02*
X156205952Y-132284819D01*
X156205952Y-132284819D02*
X156110714Y-132427676D01*
X156110714Y-132427676D02*
X156015476Y-132522914D01*
X156015476Y-132522914D02*
X155920238Y-132570533D01*
X144907200Y-60733332D02*
X144954819Y-60590475D01*
X144954819Y-60590475D02*
X144954819Y-60352380D01*
X144954819Y-60352380D02*
X144907200Y-60257142D01*
X144907200Y-60257142D02*
X144859580Y-60209523D01*
X144859580Y-60209523D02*
X144764342Y-60161904D01*
X144764342Y-60161904D02*
X144669104Y-60161904D01*
X144669104Y-60161904D02*
X144573866Y-60209523D01*
X144573866Y-60209523D02*
X144526247Y-60257142D01*
X144526247Y-60257142D02*
X144478628Y-60352380D01*
X144478628Y-60352380D02*
X144431009Y-60542856D01*
X144431009Y-60542856D02*
X144383390Y-60638094D01*
X144383390Y-60638094D02*
X144335771Y-60685713D01*
X144335771Y-60685713D02*
X144240533Y-60733332D01*
X144240533Y-60733332D02*
X144145295Y-60733332D01*
X144145295Y-60733332D02*
X144050057Y-60685713D01*
X144050057Y-60685713D02*
X144002438Y-60638094D01*
X144002438Y-60638094D02*
X143954819Y-60542856D01*
X143954819Y-60542856D02*
X143954819Y-60304761D01*
X143954819Y-60304761D02*
X144002438Y-60161904D01*
X143954819Y-59828570D02*
X144954819Y-59590475D01*
X144954819Y-59590475D02*
X144240533Y-59399999D01*
X144240533Y-59399999D02*
X144954819Y-59209523D01*
X144954819Y-59209523D02*
X143954819Y-58971428D01*
X144050057Y-58638094D02*
X144002438Y-58590475D01*
X144002438Y-58590475D02*
X143954819Y-58495237D01*
X143954819Y-58495237D02*
X143954819Y-58257142D01*
X143954819Y-58257142D02*
X144002438Y-58161904D01*
X144002438Y-58161904D02*
X144050057Y-58114285D01*
X144050057Y-58114285D02*
X144145295Y-58066666D01*
X144145295Y-58066666D02*
X144240533Y-58066666D01*
X144240533Y-58066666D02*
X144383390Y-58114285D01*
X144383390Y-58114285D02*
X144954819Y-58685713D01*
X144954819Y-58685713D02*
X144954819Y-58066666D01*
X102758333Y-53859580D02*
X102710714Y-53907200D01*
X102710714Y-53907200D02*
X102567857Y-53954819D01*
X102567857Y-53954819D02*
X102472619Y-53954819D01*
X102472619Y-53954819D02*
X102329762Y-53907200D01*
X102329762Y-53907200D02*
X102234524Y-53811961D01*
X102234524Y-53811961D02*
X102186905Y-53716723D01*
X102186905Y-53716723D02*
X102139286Y-53526247D01*
X102139286Y-53526247D02*
X102139286Y-53383390D01*
X102139286Y-53383390D02*
X102186905Y-53192914D01*
X102186905Y-53192914D02*
X102234524Y-53097676D01*
X102234524Y-53097676D02*
X102329762Y-53002438D01*
X102329762Y-53002438D02*
X102472619Y-52954819D01*
X102472619Y-52954819D02*
X102567857Y-52954819D01*
X102567857Y-52954819D02*
X102710714Y-53002438D01*
X102710714Y-53002438D02*
X102758333Y-53050057D01*
X103091667Y-52954819D02*
X103758333Y-52954819D01*
X103758333Y-52954819D02*
X103329762Y-53954819D01*
X131646058Y-55941904D02*
X132455581Y-55941904D01*
X132455581Y-55941904D02*
X132550819Y-55894285D01*
X132550819Y-55894285D02*
X132598439Y-55846666D01*
X132598439Y-55846666D02*
X132646058Y-55751428D01*
X132646058Y-55751428D02*
X132646058Y-55560952D01*
X132646058Y-55560952D02*
X132598439Y-55465714D01*
X132598439Y-55465714D02*
X132550819Y-55418095D01*
X132550819Y-55418095D02*
X132455581Y-55370476D01*
X132455581Y-55370476D02*
X131646058Y-55370476D01*
X131741296Y-54941904D02*
X131693677Y-54894285D01*
X131693677Y-54894285D02*
X131646058Y-54799047D01*
X131646058Y-54799047D02*
X131646058Y-54560952D01*
X131646058Y-54560952D02*
X131693677Y-54465714D01*
X131693677Y-54465714D02*
X131741296Y-54418095D01*
X131741296Y-54418095D02*
X131836534Y-54370476D01*
X131836534Y-54370476D02*
X131931772Y-54370476D01*
X131931772Y-54370476D02*
X132074629Y-54418095D01*
X132074629Y-54418095D02*
X132646058Y-54989523D01*
X132646058Y-54989523D02*
X132646058Y-54370476D01*
X122261905Y-89767319D02*
X122261905Y-88767319D01*
X122261905Y-88767319D02*
X122500000Y-88767319D01*
X122500000Y-88767319D02*
X122642857Y-88814938D01*
X122642857Y-88814938D02*
X122738095Y-88910176D01*
X122738095Y-88910176D02*
X122785714Y-89005414D01*
X122785714Y-89005414D02*
X122833333Y-89195890D01*
X122833333Y-89195890D02*
X122833333Y-89338747D01*
X122833333Y-89338747D02*
X122785714Y-89529223D01*
X122785714Y-89529223D02*
X122738095Y-89624461D01*
X122738095Y-89624461D02*
X122642857Y-89719700D01*
X122642857Y-89719700D02*
X122500000Y-89767319D01*
X122500000Y-89767319D02*
X122261905Y-89767319D01*
X123690476Y-88767319D02*
X123500000Y-88767319D01*
X123500000Y-88767319D02*
X123404762Y-88814938D01*
X123404762Y-88814938D02*
X123357143Y-88862557D01*
X123357143Y-88862557D02*
X123261905Y-89005414D01*
X123261905Y-89005414D02*
X123214286Y-89195890D01*
X123214286Y-89195890D02*
X123214286Y-89576842D01*
X123214286Y-89576842D02*
X123261905Y-89672080D01*
X123261905Y-89672080D02*
X123309524Y-89719700D01*
X123309524Y-89719700D02*
X123404762Y-89767319D01*
X123404762Y-89767319D02*
X123595238Y-89767319D01*
X123595238Y-89767319D02*
X123690476Y-89719700D01*
X123690476Y-89719700D02*
X123738095Y-89672080D01*
X123738095Y-89672080D02*
X123785714Y-89576842D01*
X123785714Y-89576842D02*
X123785714Y-89338747D01*
X123785714Y-89338747D02*
X123738095Y-89243509D01*
X123738095Y-89243509D02*
X123690476Y-89195890D01*
X123690476Y-89195890D02*
X123595238Y-89148271D01*
X123595238Y-89148271D02*
X123404762Y-89148271D01*
X123404762Y-89148271D02*
X123309524Y-89195890D01*
X123309524Y-89195890D02*
X123261905Y-89243509D01*
X123261905Y-89243509D02*
X123214286Y-89338747D01*
X98129819Y-55892857D02*
X97653628Y-56226190D01*
X98129819Y-56464285D02*
X97129819Y-56464285D01*
X97129819Y-56464285D02*
X97129819Y-56083333D01*
X97129819Y-56083333D02*
X97177438Y-55988095D01*
X97177438Y-55988095D02*
X97225057Y-55940476D01*
X97225057Y-55940476D02*
X97320295Y-55892857D01*
X97320295Y-55892857D02*
X97463152Y-55892857D01*
X97463152Y-55892857D02*
X97558390Y-55940476D01*
X97558390Y-55940476D02*
X97606009Y-55988095D01*
X97606009Y-55988095D02*
X97653628Y-56083333D01*
X97653628Y-56083333D02*
X97653628Y-56464285D01*
X98129819Y-54940476D02*
X98129819Y-55511904D01*
X98129819Y-55226190D02*
X97129819Y-55226190D01*
X97129819Y-55226190D02*
X97272676Y-55321428D01*
X97272676Y-55321428D02*
X97367914Y-55416666D01*
X97367914Y-55416666D02*
X97415533Y-55511904D01*
X97463152Y-54083333D02*
X98129819Y-54083333D01*
X97082200Y-54321428D02*
X97796485Y-54559523D01*
X97796485Y-54559523D02*
X97796485Y-53940476D01*
X102183333Y-67459580D02*
X102135714Y-67507200D01*
X102135714Y-67507200D02*
X101992857Y-67554819D01*
X101992857Y-67554819D02*
X101897619Y-67554819D01*
X101897619Y-67554819D02*
X101754762Y-67507200D01*
X101754762Y-67507200D02*
X101659524Y-67411961D01*
X101659524Y-67411961D02*
X101611905Y-67316723D01*
X101611905Y-67316723D02*
X101564286Y-67126247D01*
X101564286Y-67126247D02*
X101564286Y-66983390D01*
X101564286Y-66983390D02*
X101611905Y-66792914D01*
X101611905Y-66792914D02*
X101659524Y-66697676D01*
X101659524Y-66697676D02*
X101754762Y-66602438D01*
X101754762Y-66602438D02*
X101897619Y-66554819D01*
X101897619Y-66554819D02*
X101992857Y-66554819D01*
X101992857Y-66554819D02*
X102135714Y-66602438D01*
X102135714Y-66602438D02*
X102183333Y-66650057D01*
X103088095Y-66554819D02*
X102611905Y-66554819D01*
X102611905Y-66554819D02*
X102564286Y-67031009D01*
X102564286Y-67031009D02*
X102611905Y-66983390D01*
X102611905Y-66983390D02*
X102707143Y-66935771D01*
X102707143Y-66935771D02*
X102945238Y-66935771D01*
X102945238Y-66935771D02*
X103040476Y-66983390D01*
X103040476Y-66983390D02*
X103088095Y-67031009D01*
X103088095Y-67031009D02*
X103135714Y-67126247D01*
X103135714Y-67126247D02*
X103135714Y-67364342D01*
X103135714Y-67364342D02*
X103088095Y-67459580D01*
X103088095Y-67459580D02*
X103040476Y-67507200D01*
X103040476Y-67507200D02*
X102945238Y-67554819D01*
X102945238Y-67554819D02*
X102707143Y-67554819D01*
X102707143Y-67554819D02*
X102611905Y-67507200D01*
X102611905Y-67507200D02*
X102564286Y-67459580D01*
X89886905Y-71804819D02*
X89886905Y-70804819D01*
X89886905Y-70804819D02*
X90125000Y-70804819D01*
X90125000Y-70804819D02*
X90267857Y-70852438D01*
X90267857Y-70852438D02*
X90363095Y-70947676D01*
X90363095Y-70947676D02*
X90410714Y-71042914D01*
X90410714Y-71042914D02*
X90458333Y-71233390D01*
X90458333Y-71233390D02*
X90458333Y-71376247D01*
X90458333Y-71376247D02*
X90410714Y-71566723D01*
X90410714Y-71566723D02*
X90363095Y-71661961D01*
X90363095Y-71661961D02*
X90267857Y-71757200D01*
X90267857Y-71757200D02*
X90125000Y-71804819D01*
X90125000Y-71804819D02*
X89886905Y-71804819D01*
X90791667Y-70804819D02*
X91410714Y-70804819D01*
X91410714Y-70804819D02*
X91077381Y-71185771D01*
X91077381Y-71185771D02*
X91220238Y-71185771D01*
X91220238Y-71185771D02*
X91315476Y-71233390D01*
X91315476Y-71233390D02*
X91363095Y-71281009D01*
X91363095Y-71281009D02*
X91410714Y-71376247D01*
X91410714Y-71376247D02*
X91410714Y-71614342D01*
X91410714Y-71614342D02*
X91363095Y-71709580D01*
X91363095Y-71709580D02*
X91315476Y-71757200D01*
X91315476Y-71757200D02*
X91220238Y-71804819D01*
X91220238Y-71804819D02*
X90934524Y-71804819D01*
X90934524Y-71804819D02*
X90839286Y-71757200D01*
X90839286Y-71757200D02*
X90791667Y-71709580D01*
X161736456Y-108235079D02*
X161736456Y-108949364D01*
X161736456Y-108949364D02*
X161688837Y-109092221D01*
X161688837Y-109092221D02*
X161593599Y-109187460D01*
X161593599Y-109187460D02*
X161450742Y-109235079D01*
X161450742Y-109235079D02*
X161355504Y-109235079D01*
X162736456Y-109235079D02*
X162165028Y-109235079D01*
X162450742Y-109235079D02*
X162450742Y-108235079D01*
X162450742Y-108235079D02*
X162355504Y-108377936D01*
X162355504Y-108377936D02*
X162260266Y-108473174D01*
X162260266Y-108473174D02*
X162165028Y-108520793D01*
X90211905Y-54329819D02*
X90211905Y-53329819D01*
X90211905Y-53329819D02*
X90450000Y-53329819D01*
X90450000Y-53329819D02*
X90592857Y-53377438D01*
X90592857Y-53377438D02*
X90688095Y-53472676D01*
X90688095Y-53472676D02*
X90735714Y-53567914D01*
X90735714Y-53567914D02*
X90783333Y-53758390D01*
X90783333Y-53758390D02*
X90783333Y-53901247D01*
X90783333Y-53901247D02*
X90735714Y-54091723D01*
X90735714Y-54091723D02*
X90688095Y-54186961D01*
X90688095Y-54186961D02*
X90592857Y-54282200D01*
X90592857Y-54282200D02*
X90450000Y-54329819D01*
X90450000Y-54329819D02*
X90211905Y-54329819D01*
X91116667Y-53329819D02*
X91783333Y-53329819D01*
X91783333Y-53329819D02*
X91354762Y-54329819D01*
X82759580Y-83242857D02*
X82807200Y-83290476D01*
X82807200Y-83290476D02*
X82854819Y-83433333D01*
X82854819Y-83433333D02*
X82854819Y-83528571D01*
X82854819Y-83528571D02*
X82807200Y-83671428D01*
X82807200Y-83671428D02*
X82711961Y-83766666D01*
X82711961Y-83766666D02*
X82616723Y-83814285D01*
X82616723Y-83814285D02*
X82426247Y-83861904D01*
X82426247Y-83861904D02*
X82283390Y-83861904D01*
X82283390Y-83861904D02*
X82092914Y-83814285D01*
X82092914Y-83814285D02*
X81997676Y-83766666D01*
X81997676Y-83766666D02*
X81902438Y-83671428D01*
X81902438Y-83671428D02*
X81854819Y-83528571D01*
X81854819Y-83528571D02*
X81854819Y-83433333D01*
X81854819Y-83433333D02*
X81902438Y-83290476D01*
X81902438Y-83290476D02*
X81950057Y-83242857D01*
X82854819Y-82290476D02*
X82854819Y-82861904D01*
X82854819Y-82576190D02*
X81854819Y-82576190D01*
X81854819Y-82576190D02*
X81997676Y-82671428D01*
X81997676Y-82671428D02*
X82092914Y-82766666D01*
X82092914Y-82766666D02*
X82140533Y-82861904D01*
X81854819Y-81671428D02*
X81854819Y-81576190D01*
X81854819Y-81576190D02*
X81902438Y-81480952D01*
X81902438Y-81480952D02*
X81950057Y-81433333D01*
X81950057Y-81433333D02*
X82045295Y-81385714D01*
X82045295Y-81385714D02*
X82235771Y-81338095D01*
X82235771Y-81338095D02*
X82473866Y-81338095D01*
X82473866Y-81338095D02*
X82664342Y-81385714D01*
X82664342Y-81385714D02*
X82759580Y-81433333D01*
X82759580Y-81433333D02*
X82807200Y-81480952D01*
X82807200Y-81480952D02*
X82854819Y-81576190D01*
X82854819Y-81576190D02*
X82854819Y-81671428D01*
X82854819Y-81671428D02*
X82807200Y-81766666D01*
X82807200Y-81766666D02*
X82759580Y-81814285D01*
X82759580Y-81814285D02*
X82664342Y-81861904D01*
X82664342Y-81861904D02*
X82473866Y-81909523D01*
X82473866Y-81909523D02*
X82235771Y-81909523D01*
X82235771Y-81909523D02*
X82045295Y-81861904D01*
X82045295Y-81861904D02*
X81950057Y-81814285D01*
X81950057Y-81814285D02*
X81902438Y-81766666D01*
X81902438Y-81766666D02*
X81854819Y-81671428D01*
X116661905Y-89842319D02*
X116661905Y-88842319D01*
X116661905Y-88842319D02*
X116900000Y-88842319D01*
X116900000Y-88842319D02*
X117042857Y-88889938D01*
X117042857Y-88889938D02*
X117138095Y-88985176D01*
X117138095Y-88985176D02*
X117185714Y-89080414D01*
X117185714Y-89080414D02*
X117233333Y-89270890D01*
X117233333Y-89270890D02*
X117233333Y-89413747D01*
X117233333Y-89413747D02*
X117185714Y-89604223D01*
X117185714Y-89604223D02*
X117138095Y-89699461D01*
X117138095Y-89699461D02*
X117042857Y-89794700D01*
X117042857Y-89794700D02*
X116900000Y-89842319D01*
X116900000Y-89842319D02*
X116661905Y-89842319D01*
X117614286Y-88937557D02*
X117661905Y-88889938D01*
X117661905Y-88889938D02*
X117757143Y-88842319D01*
X117757143Y-88842319D02*
X117995238Y-88842319D01*
X117995238Y-88842319D02*
X118090476Y-88889938D01*
X118090476Y-88889938D02*
X118138095Y-88937557D01*
X118138095Y-88937557D02*
X118185714Y-89032795D01*
X118185714Y-89032795D02*
X118185714Y-89128033D01*
X118185714Y-89128033D02*
X118138095Y-89270890D01*
X118138095Y-89270890D02*
X117566667Y-89842319D01*
X117566667Y-89842319D02*
X118185714Y-89842319D01*
X89957142Y-66204819D02*
X89623809Y-65728628D01*
X89385714Y-66204819D02*
X89385714Y-65204819D01*
X89385714Y-65204819D02*
X89766666Y-65204819D01*
X89766666Y-65204819D02*
X89861904Y-65252438D01*
X89861904Y-65252438D02*
X89909523Y-65300057D01*
X89909523Y-65300057D02*
X89957142Y-65395295D01*
X89957142Y-65395295D02*
X89957142Y-65538152D01*
X89957142Y-65538152D02*
X89909523Y-65633390D01*
X89909523Y-65633390D02*
X89861904Y-65681009D01*
X89861904Y-65681009D02*
X89766666Y-65728628D01*
X89766666Y-65728628D02*
X89385714Y-65728628D01*
X90909523Y-66204819D02*
X90338095Y-66204819D01*
X90623809Y-66204819D02*
X90623809Y-65204819D01*
X90623809Y-65204819D02*
X90528571Y-65347676D01*
X90528571Y-65347676D02*
X90433333Y-65442914D01*
X90433333Y-65442914D02*
X90338095Y-65490533D01*
X91290476Y-65300057D02*
X91338095Y-65252438D01*
X91338095Y-65252438D02*
X91433333Y-65204819D01*
X91433333Y-65204819D02*
X91671428Y-65204819D01*
X91671428Y-65204819D02*
X91766666Y-65252438D01*
X91766666Y-65252438D02*
X91814285Y-65300057D01*
X91814285Y-65300057D02*
X91861904Y-65395295D01*
X91861904Y-65395295D02*
X91861904Y-65490533D01*
X91861904Y-65490533D02*
X91814285Y-65633390D01*
X91814285Y-65633390D02*
X91242857Y-66204819D01*
X91242857Y-66204819D02*
X91861904Y-66204819D01*
X119461905Y-89754819D02*
X119461905Y-88754819D01*
X119461905Y-88754819D02*
X119700000Y-88754819D01*
X119700000Y-88754819D02*
X119842857Y-88802438D01*
X119842857Y-88802438D02*
X119938095Y-88897676D01*
X119938095Y-88897676D02*
X119985714Y-88992914D01*
X119985714Y-88992914D02*
X120033333Y-89183390D01*
X120033333Y-89183390D02*
X120033333Y-89326247D01*
X120033333Y-89326247D02*
X119985714Y-89516723D01*
X119985714Y-89516723D02*
X119938095Y-89611961D01*
X119938095Y-89611961D02*
X119842857Y-89707200D01*
X119842857Y-89707200D02*
X119700000Y-89754819D01*
X119700000Y-89754819D02*
X119461905Y-89754819D01*
X120938095Y-88754819D02*
X120461905Y-88754819D01*
X120461905Y-88754819D02*
X120414286Y-89231009D01*
X120414286Y-89231009D02*
X120461905Y-89183390D01*
X120461905Y-89183390D02*
X120557143Y-89135771D01*
X120557143Y-89135771D02*
X120795238Y-89135771D01*
X120795238Y-89135771D02*
X120890476Y-89183390D01*
X120890476Y-89183390D02*
X120938095Y-89231009D01*
X120938095Y-89231009D02*
X120985714Y-89326247D01*
X120985714Y-89326247D02*
X120985714Y-89564342D01*
X120985714Y-89564342D02*
X120938095Y-89659580D01*
X120938095Y-89659580D02*
X120890476Y-89707200D01*
X120890476Y-89707200D02*
X120795238Y-89754819D01*
X120795238Y-89754819D02*
X120557143Y-89754819D01*
X120557143Y-89754819D02*
X120461905Y-89707200D01*
X120461905Y-89707200D02*
X120414286Y-89659580D01*
X85248569Y-70370833D02*
X85962854Y-70370833D01*
X85962854Y-70370833D02*
X86105711Y-70418452D01*
X86105711Y-70418452D02*
X86200950Y-70513690D01*
X86200950Y-70513690D02*
X86248569Y-70656547D01*
X86248569Y-70656547D02*
X86248569Y-70751785D01*
X85248569Y-69989880D02*
X85248569Y-69370833D01*
X85248569Y-69370833D02*
X85629521Y-69704166D01*
X85629521Y-69704166D02*
X85629521Y-69561309D01*
X85629521Y-69561309D02*
X85677140Y-69466071D01*
X85677140Y-69466071D02*
X85724759Y-69418452D01*
X85724759Y-69418452D02*
X85819997Y-69370833D01*
X85819997Y-69370833D02*
X86058092Y-69370833D01*
X86058092Y-69370833D02*
X86153330Y-69418452D01*
X86153330Y-69418452D02*
X86200950Y-69466071D01*
X86200950Y-69466071D02*
X86248569Y-69561309D01*
X86248569Y-69561309D02*
X86248569Y-69847023D01*
X86248569Y-69847023D02*
X86200950Y-69942261D01*
X86200950Y-69942261D02*
X86153330Y-69989880D01*
X148430798Y-90705657D02*
X148096861Y-90228604D01*
X147858335Y-90705657D02*
X147858335Y-89703846D01*
X147858335Y-89703846D02*
X148239977Y-89703846D01*
X148239977Y-89703846D02*
X148335388Y-89751551D01*
X148335388Y-89751551D02*
X148383093Y-89799256D01*
X148383093Y-89799256D02*
X148430798Y-89894667D01*
X148430798Y-89894667D02*
X148430798Y-90037783D01*
X148430798Y-90037783D02*
X148383093Y-90133193D01*
X148383093Y-90133193D02*
X148335388Y-90180899D01*
X148335388Y-90180899D02*
X148239977Y-90228604D01*
X148239977Y-90228604D02*
X147858335Y-90228604D01*
X149194083Y-90180899D02*
X148860146Y-90180899D01*
X148860146Y-90705657D02*
X148860146Y-89703846D01*
X148860146Y-89703846D02*
X149337199Y-89703846D01*
X149718841Y-90705657D02*
X149718841Y-89703846D01*
X149718841Y-89703846D02*
X150052778Y-90419425D01*
X150052778Y-90419425D02*
X150386715Y-89703846D01*
X150386715Y-89703846D02*
X150386715Y-90705657D01*
X150911473Y-90705657D02*
X151102294Y-90705657D01*
X151102294Y-90705657D02*
X151197705Y-90657952D01*
X151197705Y-90657952D02*
X151245410Y-90610246D01*
X151245410Y-90610246D02*
X151340821Y-90467130D01*
X151340821Y-90467130D02*
X151388526Y-90276309D01*
X151388526Y-90276309D02*
X151388526Y-89894667D01*
X151388526Y-89894667D02*
X151340821Y-89799256D01*
X151340821Y-89799256D02*
X151293116Y-89751551D01*
X151293116Y-89751551D02*
X151197705Y-89703846D01*
X151197705Y-89703846D02*
X151006884Y-89703846D01*
X151006884Y-89703846D02*
X150911473Y-89751551D01*
X150911473Y-89751551D02*
X150863768Y-89799256D01*
X150863768Y-89799256D02*
X150816063Y-89894667D01*
X150816063Y-89894667D02*
X150816063Y-90133193D01*
X150816063Y-90133193D02*
X150863768Y-90228604D01*
X150863768Y-90228604D02*
X150911473Y-90276309D01*
X150911473Y-90276309D02*
X151006884Y-90324015D01*
X151006884Y-90324015D02*
X151197705Y-90324015D01*
X151197705Y-90324015D02*
X151293116Y-90276309D01*
X151293116Y-90276309D02*
X151340821Y-90228604D01*
X151340821Y-90228604D02*
X151388526Y-90133193D01*
X152294927Y-89703846D02*
X151817874Y-89703846D01*
X151817874Y-89703846D02*
X151770169Y-90180899D01*
X151770169Y-90180899D02*
X151817874Y-90133193D01*
X151817874Y-90133193D02*
X151913285Y-90085488D01*
X151913285Y-90085488D02*
X152151811Y-90085488D01*
X152151811Y-90085488D02*
X152247222Y-90133193D01*
X152247222Y-90133193D02*
X152294927Y-90180899D01*
X152294927Y-90180899D02*
X152342632Y-90276309D01*
X152342632Y-90276309D02*
X152342632Y-90514836D01*
X152342632Y-90514836D02*
X152294927Y-90610246D01*
X152294927Y-90610246D02*
X152247222Y-90657952D01*
X152247222Y-90657952D02*
X152151811Y-90705657D01*
X152151811Y-90705657D02*
X151913285Y-90705657D01*
X151913285Y-90705657D02*
X151817874Y-90657952D01*
X151817874Y-90657952D02*
X151770169Y-90610246D01*
X153344443Y-90610246D02*
X153296738Y-90657952D01*
X153296738Y-90657952D02*
X153153622Y-90705657D01*
X153153622Y-90705657D02*
X153058212Y-90705657D01*
X153058212Y-90705657D02*
X152915096Y-90657952D01*
X152915096Y-90657952D02*
X152819685Y-90562541D01*
X152819685Y-90562541D02*
X152771980Y-90467130D01*
X152771980Y-90467130D02*
X152724275Y-90276309D01*
X152724275Y-90276309D02*
X152724275Y-90133193D01*
X152724275Y-90133193D02*
X152771980Y-89942372D01*
X152771980Y-89942372D02*
X152819685Y-89846962D01*
X152819685Y-89846962D02*
X152915096Y-89751551D01*
X152915096Y-89751551D02*
X153058212Y-89703846D01*
X153058212Y-89703846D02*
X153153622Y-89703846D01*
X153153622Y-89703846D02*
X153296738Y-89751551D01*
X153296738Y-89751551D02*
X153344443Y-89799256D01*
X153678380Y-89703846D02*
X153916907Y-90705657D01*
X153916907Y-90705657D02*
X154107728Y-89990078D01*
X154107728Y-89990078D02*
X154298549Y-90705657D01*
X154298549Y-90705657D02*
X154537076Y-89703846D01*
X135007200Y-60433332D02*
X135054819Y-60290475D01*
X135054819Y-60290475D02*
X135054819Y-60052380D01*
X135054819Y-60052380D02*
X135007200Y-59957142D01*
X135007200Y-59957142D02*
X134959580Y-59909523D01*
X134959580Y-59909523D02*
X134864342Y-59861904D01*
X134864342Y-59861904D02*
X134769104Y-59861904D01*
X134769104Y-59861904D02*
X134673866Y-59909523D01*
X134673866Y-59909523D02*
X134626247Y-59957142D01*
X134626247Y-59957142D02*
X134578628Y-60052380D01*
X134578628Y-60052380D02*
X134531009Y-60242856D01*
X134531009Y-60242856D02*
X134483390Y-60338094D01*
X134483390Y-60338094D02*
X134435771Y-60385713D01*
X134435771Y-60385713D02*
X134340533Y-60433332D01*
X134340533Y-60433332D02*
X134245295Y-60433332D01*
X134245295Y-60433332D02*
X134150057Y-60385713D01*
X134150057Y-60385713D02*
X134102438Y-60338094D01*
X134102438Y-60338094D02*
X134054819Y-60242856D01*
X134054819Y-60242856D02*
X134054819Y-60004761D01*
X134054819Y-60004761D02*
X134102438Y-59861904D01*
X134054819Y-59528570D02*
X135054819Y-59290475D01*
X135054819Y-59290475D02*
X134340533Y-59099999D01*
X134340533Y-59099999D02*
X135054819Y-58909523D01*
X135054819Y-58909523D02*
X134054819Y-58671428D01*
X135054819Y-57766666D02*
X135054819Y-58338094D01*
X135054819Y-58052380D02*
X134054819Y-58052380D01*
X134054819Y-58052380D02*
X134197676Y-58147618D01*
X134197676Y-58147618D02*
X134292914Y-58242856D01*
X134292914Y-58242856D02*
X134340533Y-58338094D01*
X83933332Y-92433723D02*
X84314285Y-92433723D01*
X83857142Y-92662295D02*
X84123809Y-91862295D01*
X84123809Y-91862295D02*
X84390475Y-92662295D01*
X84657142Y-92662295D02*
X84657142Y-91862295D01*
X84657142Y-91862295D02*
X84847618Y-91862295D01*
X84847618Y-91862295D02*
X84961904Y-91900390D01*
X84961904Y-91900390D02*
X85038094Y-91976580D01*
X85038094Y-91976580D02*
X85076189Y-92052771D01*
X85076189Y-92052771D02*
X85114285Y-92205152D01*
X85114285Y-92205152D02*
X85114285Y-92319438D01*
X85114285Y-92319438D02*
X85076189Y-92471819D01*
X85076189Y-92471819D02*
X85038094Y-92548009D01*
X85038094Y-92548009D02*
X84961904Y-92624200D01*
X84961904Y-92624200D02*
X84847618Y-92662295D01*
X84847618Y-92662295D02*
X84657142Y-92662295D01*
X85419046Y-92624200D02*
X85533332Y-92662295D01*
X85533332Y-92662295D02*
X85723808Y-92662295D01*
X85723808Y-92662295D02*
X85799999Y-92624200D01*
X85799999Y-92624200D02*
X85838094Y-92586104D01*
X85838094Y-92586104D02*
X85876189Y-92509914D01*
X85876189Y-92509914D02*
X85876189Y-92433723D01*
X85876189Y-92433723D02*
X85838094Y-92357533D01*
X85838094Y-92357533D02*
X85799999Y-92319438D01*
X85799999Y-92319438D02*
X85723808Y-92281342D01*
X85723808Y-92281342D02*
X85571427Y-92243247D01*
X85571427Y-92243247D02*
X85495237Y-92205152D01*
X85495237Y-92205152D02*
X85457142Y-92167057D01*
X85457142Y-92167057D02*
X85419046Y-92090866D01*
X85419046Y-92090866D02*
X85419046Y-92014676D01*
X85419046Y-92014676D02*
X85457142Y-91938485D01*
X85457142Y-91938485D02*
X85495237Y-91900390D01*
X85495237Y-91900390D02*
X85571427Y-91862295D01*
X85571427Y-91862295D02*
X85761904Y-91862295D01*
X85761904Y-91862295D02*
X85876189Y-91900390D01*
X86638094Y-92662295D02*
X86180951Y-92662295D01*
X86409523Y-92662295D02*
X86409523Y-91862295D01*
X86409523Y-91862295D02*
X86333332Y-91976580D01*
X86333332Y-91976580D02*
X86257142Y-92052771D01*
X86257142Y-92052771D02*
X86180951Y-92090866D01*
X87133333Y-91862295D02*
X87209523Y-91862295D01*
X87209523Y-91862295D02*
X87285714Y-91900390D01*
X87285714Y-91900390D02*
X87323809Y-91938485D01*
X87323809Y-91938485D02*
X87361904Y-92014676D01*
X87361904Y-92014676D02*
X87399999Y-92167057D01*
X87399999Y-92167057D02*
X87399999Y-92357533D01*
X87399999Y-92357533D02*
X87361904Y-92509914D01*
X87361904Y-92509914D02*
X87323809Y-92586104D01*
X87323809Y-92586104D02*
X87285714Y-92624200D01*
X87285714Y-92624200D02*
X87209523Y-92662295D01*
X87209523Y-92662295D02*
X87133333Y-92662295D01*
X87133333Y-92662295D02*
X87057142Y-92624200D01*
X87057142Y-92624200D02*
X87019047Y-92586104D01*
X87019047Y-92586104D02*
X86980952Y-92509914D01*
X86980952Y-92509914D02*
X86942856Y-92357533D01*
X86942856Y-92357533D02*
X86942856Y-92167057D01*
X86942856Y-92167057D02*
X86980952Y-92014676D01*
X86980952Y-92014676D02*
X87019047Y-91938485D01*
X87019047Y-91938485D02*
X87057142Y-91900390D01*
X87057142Y-91900390D02*
X87133333Y-91862295D01*
X88161904Y-92662295D02*
X87704761Y-92662295D01*
X87933333Y-92662295D02*
X87933333Y-91862295D01*
X87933333Y-91862295D02*
X87857142Y-91976580D01*
X87857142Y-91976580D02*
X87780952Y-92052771D01*
X87780952Y-92052771D02*
X87704761Y-92090866D01*
X88885714Y-91862295D02*
X88504762Y-91862295D01*
X88504762Y-91862295D02*
X88466666Y-92243247D01*
X88466666Y-92243247D02*
X88504762Y-92205152D01*
X88504762Y-92205152D02*
X88580952Y-92167057D01*
X88580952Y-92167057D02*
X88771428Y-92167057D01*
X88771428Y-92167057D02*
X88847619Y-92205152D01*
X88847619Y-92205152D02*
X88885714Y-92243247D01*
X88885714Y-92243247D02*
X88923809Y-92319438D01*
X88923809Y-92319438D02*
X88923809Y-92509914D01*
X88923809Y-92509914D02*
X88885714Y-92586104D01*
X88885714Y-92586104D02*
X88847619Y-92624200D01*
X88847619Y-92624200D02*
X88771428Y-92662295D01*
X88771428Y-92662295D02*
X88580952Y-92662295D01*
X88580952Y-92662295D02*
X88504762Y-92624200D01*
X88504762Y-92624200D02*
X88466666Y-92586104D01*
X89266667Y-92662295D02*
X89266667Y-91862295D01*
X89647619Y-92662295D02*
X89647619Y-91862295D01*
X89647619Y-91862295D02*
X89838095Y-91862295D01*
X89838095Y-91862295D02*
X89952381Y-91900390D01*
X89952381Y-91900390D02*
X90028571Y-91976580D01*
X90028571Y-91976580D02*
X90066666Y-92052771D01*
X90066666Y-92052771D02*
X90104762Y-92205152D01*
X90104762Y-92205152D02*
X90104762Y-92319438D01*
X90104762Y-92319438D02*
X90066666Y-92471819D01*
X90066666Y-92471819D02*
X90028571Y-92548009D01*
X90028571Y-92548009D02*
X89952381Y-92624200D01*
X89952381Y-92624200D02*
X89838095Y-92662295D01*
X89838095Y-92662295D02*
X89647619Y-92662295D01*
X90866666Y-91900390D02*
X90790476Y-91862295D01*
X90790476Y-91862295D02*
X90676190Y-91862295D01*
X90676190Y-91862295D02*
X90561904Y-91900390D01*
X90561904Y-91900390D02*
X90485714Y-91976580D01*
X90485714Y-91976580D02*
X90447619Y-92052771D01*
X90447619Y-92052771D02*
X90409523Y-92205152D01*
X90409523Y-92205152D02*
X90409523Y-92319438D01*
X90409523Y-92319438D02*
X90447619Y-92471819D01*
X90447619Y-92471819D02*
X90485714Y-92548009D01*
X90485714Y-92548009D02*
X90561904Y-92624200D01*
X90561904Y-92624200D02*
X90676190Y-92662295D01*
X90676190Y-92662295D02*
X90752381Y-92662295D01*
X90752381Y-92662295D02*
X90866666Y-92624200D01*
X90866666Y-92624200D02*
X90904762Y-92586104D01*
X90904762Y-92586104D02*
X90904762Y-92319438D01*
X90904762Y-92319438D02*
X90752381Y-92319438D01*
X91209523Y-92624200D02*
X91323809Y-92662295D01*
X91323809Y-92662295D02*
X91514285Y-92662295D01*
X91514285Y-92662295D02*
X91590476Y-92624200D01*
X91590476Y-92624200D02*
X91628571Y-92586104D01*
X91628571Y-92586104D02*
X91666666Y-92509914D01*
X91666666Y-92509914D02*
X91666666Y-92433723D01*
X91666666Y-92433723D02*
X91628571Y-92357533D01*
X91628571Y-92357533D02*
X91590476Y-92319438D01*
X91590476Y-92319438D02*
X91514285Y-92281342D01*
X91514285Y-92281342D02*
X91361904Y-92243247D01*
X91361904Y-92243247D02*
X91285714Y-92205152D01*
X91285714Y-92205152D02*
X91247619Y-92167057D01*
X91247619Y-92167057D02*
X91209523Y-92090866D01*
X91209523Y-92090866D02*
X91209523Y-92014676D01*
X91209523Y-92014676D02*
X91247619Y-91938485D01*
X91247619Y-91938485D02*
X91285714Y-91900390D01*
X91285714Y-91900390D02*
X91361904Y-91862295D01*
X91361904Y-91862295D02*
X91552381Y-91862295D01*
X91552381Y-91862295D02*
X91666666Y-91900390D01*
D11*
X93727149Y-73321428D02*
X93489054Y-73488094D01*
X93727149Y-73607142D02*
X93227149Y-73607142D01*
X93227149Y-73607142D02*
X93227149Y-73416666D01*
X93227149Y-73416666D02*
X93250959Y-73369047D01*
X93250959Y-73369047D02*
X93274768Y-73345237D01*
X93274768Y-73345237D02*
X93322387Y-73321428D01*
X93322387Y-73321428D02*
X93393816Y-73321428D01*
X93393816Y-73321428D02*
X93441435Y-73345237D01*
X93441435Y-73345237D02*
X93465244Y-73369047D01*
X93465244Y-73369047D02*
X93489054Y-73416666D01*
X93489054Y-73416666D02*
X93489054Y-73607142D01*
X93727149Y-72845237D02*
X93727149Y-73130951D01*
X93727149Y-72988094D02*
X93227149Y-72988094D01*
X93227149Y-72988094D02*
X93298578Y-73035713D01*
X93298578Y-73035713D02*
X93346197Y-73083332D01*
X93346197Y-73083332D02*
X93370006Y-73130951D01*
X93227149Y-72535714D02*
X93227149Y-72488095D01*
X93227149Y-72488095D02*
X93250959Y-72440476D01*
X93250959Y-72440476D02*
X93274768Y-72416666D01*
X93274768Y-72416666D02*
X93322387Y-72392857D01*
X93322387Y-72392857D02*
X93417625Y-72369047D01*
X93417625Y-72369047D02*
X93536673Y-72369047D01*
X93536673Y-72369047D02*
X93631911Y-72392857D01*
X93631911Y-72392857D02*
X93679530Y-72416666D01*
X93679530Y-72416666D02*
X93703340Y-72440476D01*
X93703340Y-72440476D02*
X93727149Y-72488095D01*
X93727149Y-72488095D02*
X93727149Y-72535714D01*
X93727149Y-72535714D02*
X93703340Y-72583333D01*
X93703340Y-72583333D02*
X93679530Y-72607142D01*
X93679530Y-72607142D02*
X93631911Y-72630952D01*
X93631911Y-72630952D02*
X93536673Y-72654761D01*
X93536673Y-72654761D02*
X93417625Y-72654761D01*
X93417625Y-72654761D02*
X93322387Y-72630952D01*
X93322387Y-72630952D02*
X93274768Y-72607142D01*
X93274768Y-72607142D02*
X93250959Y-72583333D01*
X93250959Y-72583333D02*
X93227149Y-72535714D01*
X92759649Y-81196428D02*
X92521554Y-81363094D01*
X92759649Y-81482142D02*
X92259649Y-81482142D01*
X92259649Y-81482142D02*
X92259649Y-81291666D01*
X92259649Y-81291666D02*
X92283459Y-81244047D01*
X92283459Y-81244047D02*
X92307268Y-81220237D01*
X92307268Y-81220237D02*
X92354887Y-81196428D01*
X92354887Y-81196428D02*
X92426316Y-81196428D01*
X92426316Y-81196428D02*
X92473935Y-81220237D01*
X92473935Y-81220237D02*
X92497744Y-81244047D01*
X92497744Y-81244047D02*
X92521554Y-81291666D01*
X92521554Y-81291666D02*
X92521554Y-81482142D01*
X92759649Y-80720237D02*
X92759649Y-81005951D01*
X92759649Y-80863094D02*
X92259649Y-80863094D01*
X92259649Y-80863094D02*
X92331078Y-80910713D01*
X92331078Y-80910713D02*
X92378697Y-80958332D01*
X92378697Y-80958332D02*
X92402506Y-81005951D01*
X92259649Y-80267857D02*
X92259649Y-80505952D01*
X92259649Y-80505952D02*
X92497744Y-80529761D01*
X92497744Y-80529761D02*
X92473935Y-80505952D01*
X92473935Y-80505952D02*
X92450125Y-80458333D01*
X92450125Y-80458333D02*
X92450125Y-80339285D01*
X92450125Y-80339285D02*
X92473935Y-80291666D01*
X92473935Y-80291666D02*
X92497744Y-80267857D01*
X92497744Y-80267857D02*
X92545363Y-80244047D01*
X92545363Y-80244047D02*
X92664411Y-80244047D01*
X92664411Y-80244047D02*
X92712030Y-80267857D01*
X92712030Y-80267857D02*
X92735840Y-80291666D01*
X92735840Y-80291666D02*
X92759649Y-80339285D01*
X92759649Y-80339285D02*
X92759649Y-80458333D01*
X92759649Y-80458333D02*
X92735840Y-80505952D01*
X92735840Y-80505952D02*
X92712030Y-80529761D01*
D12*
%TO.C,BT1*%
X77650000Y-117400000D02*
X77650000Y-116400000D01*
X78150000Y-116900000D02*
X77150000Y-116900000D01*
X81875000Y-131725000D02*
X81875000Y-124950000D01*
X81875000Y-117850000D02*
X81875000Y-111075000D01*
X81875000Y-111075000D02*
X158925000Y-111075000D01*
X158925000Y-131725000D02*
X81875000Y-131725000D01*
X158925000Y-124950000D02*
X158925000Y-131725000D01*
X158925000Y-111075000D02*
X158925000Y-117850000D01*
X163650000Y-117400000D02*
X162650000Y-117400000D01*
D13*
%TO.C,C11*%
X103913748Y-91065000D02*
X104436252Y-91065000D01*
X103913748Y-92535000D02*
X104436252Y-92535000D01*
%TO.C,C1*%
X138265000Y-66838748D02*
X138265000Y-67361252D01*
X139735000Y-66838748D02*
X139735000Y-67361252D01*
D12*
%TO.C,U6*%
X101490000Y-90570000D02*
X99390000Y-90570000D01*
X101490000Y-92980000D02*
X99390000Y-92980000D01*
D14*
X102485000Y-92525000D02*
G75*
G02*
X102285000Y-92525000I-100000J0D01*
G01*
X102285000Y-92525000D02*
G75*
G02*
X102485000Y-92525000I100000J0D01*
G01*
D12*
%TO.C,SW2*%
X145600000Y-56300000D02*
X145600000Y-62300000D01*
X145600000Y-62300000D02*
X151600000Y-62300000D01*
X151600000Y-56300000D02*
X145600000Y-56300000D01*
X151600000Y-62300000D02*
X151600000Y-56300000D01*
D14*
X146450000Y-65550000D02*
G75*
G02*
X146250000Y-65550000I-100000J0D01*
G01*
X146250000Y-65550000D02*
G75*
G02*
X146450000Y-65550000I100000J0D01*
G01*
D13*
%TO.C,R8*%
X135372936Y-101865000D02*
X135827064Y-101865000D01*
X135372936Y-103335000D02*
X135827064Y-103335000D01*
%TO.C,J7*%
X138000000Y-74355000D02*
X138000000Y-73025000D01*
X139330000Y-74355000D02*
X138000000Y-74355000D01*
X140600000Y-71695000D02*
X148280000Y-71695000D01*
X140600000Y-74355000D02*
X140600000Y-71695000D01*
X140600000Y-74355000D02*
X148280000Y-74355000D01*
X148280000Y-74355000D02*
X148280000Y-71695000D01*
%TO.C,C7*%
X103186252Y-54540000D02*
X102663748Y-54540000D01*
X103186252Y-56010000D02*
X102663748Y-56010000D01*
D12*
%TO.C,U2*%
X112241239Y-52990000D02*
X130241239Y-52990000D01*
X112241239Y-59710000D02*
X112241239Y-52990000D01*
X112241239Y-77760000D02*
X112241239Y-78490000D01*
X112241239Y-78490000D02*
X113486239Y-78490000D01*
X130241239Y-52990000D02*
X130241239Y-59710000D01*
X130241239Y-77760000D02*
X130241239Y-78490000D01*
X130241239Y-78490000D02*
X128996239Y-78490000D01*
D14*
X111141239Y-60480000D02*
G75*
G02*
X110941239Y-60480000I-100000J0D01*
G01*
X110941239Y-60480000D02*
G75*
G02*
X111141239Y-60480000I100000J0D01*
G01*
D13*
%TO.C,Q1*%
X97190000Y-67100000D02*
X97190000Y-66450000D01*
X97190000Y-67100000D02*
X97190000Y-67750000D01*
X100310000Y-67100000D02*
X100310000Y-66450000D01*
X100310000Y-67100000D02*
X100310000Y-67750000D01*
X97240000Y-68262500D02*
X96910000Y-68502500D01*
X96910000Y-68022500D01*
X97240000Y-68262500D01*
G36*
X97240000Y-68262500D02*
G01*
X96910000Y-68502500D01*
X96910000Y-68022500D01*
X97240000Y-68262500D01*
G37*
%TO.C,C4*%
X147965000Y-66838748D02*
X147965000Y-67361252D01*
X149435000Y-66838748D02*
X149435000Y-67361252D01*
%TO.C,C3*%
X109765000Y-59461252D02*
X109765000Y-58938748D01*
X111235000Y-59461252D02*
X111235000Y-58938748D01*
%TO.C,JP1*%
X93850000Y-67325000D02*
X95850000Y-67325000D01*
X93850000Y-70125000D02*
X93850000Y-67325000D01*
X95850000Y-67325000D02*
X95850000Y-70125000D01*
X95850000Y-70125000D02*
X93850000Y-70125000D01*
%TO.C,D6*%
X122040000Y-85737500D02*
X122040000Y-88422500D01*
X122040000Y-88422500D02*
X123960000Y-88422500D01*
X123960000Y-88422500D02*
X123960000Y-85737500D01*
%TO.C,R14*%
X95239564Y-54990000D02*
X94785436Y-54990000D01*
X95239564Y-56460000D02*
X94785436Y-56460000D01*
%TO.C,J8*%
X138000000Y-88655000D02*
X138000000Y-87325000D01*
X139330000Y-88655000D02*
X138000000Y-88655000D01*
X140600000Y-85995000D02*
X153360000Y-85995000D01*
X140600000Y-88655000D02*
X140600000Y-85995000D01*
X140600000Y-88655000D02*
X153360000Y-88655000D01*
X153360000Y-88655000D02*
X153360000Y-85995000D01*
%TO.C,R1*%
X140515000Y-67347064D02*
X140515000Y-66892936D01*
X141985000Y-67347064D02*
X141985000Y-66892936D01*
%TO.C,C6*%
X94665000Y-96338748D02*
X94665000Y-96861252D01*
X96135000Y-96338748D02*
X96135000Y-96861252D01*
%TO.C,C5*%
X102138748Y-64465000D02*
X102661252Y-64465000D01*
X102138748Y-65935000D02*
X102661252Y-65935000D01*
D12*
%TO.C,U7*%
X92612500Y-74785000D02*
X90987500Y-74785000D01*
X92612500Y-77915000D02*
X90987500Y-77915000D01*
D14*
X89345000Y-75405000D02*
G75*
G02*
X89145000Y-75405000I-100000J0D01*
G01*
X89145000Y-75405000D02*
G75*
G02*
X89345000Y-75405000I100000J0D01*
G01*
D13*
%TO.C,R7*%
X116665000Y-82672936D02*
X116665000Y-83127064D01*
X118135000Y-82672936D02*
X118135000Y-83127064D01*
%TO.C,D3*%
X89625000Y-70660000D02*
X92310000Y-70660000D01*
X92310000Y-68740000D02*
X89625000Y-68740000D01*
X92310000Y-70660000D02*
X92310000Y-68740000D01*
D14*
%TO.C,IC1*%
X98425000Y-57275000D02*
X101175000Y-57275000D01*
X101525000Y-57150000D02*
X103275000Y-57150000D01*
X101525000Y-63650000D02*
X101525000Y-57150000D01*
X103275000Y-57150000D02*
X103275000Y-63650000D01*
X103275000Y-63650000D02*
X101525000Y-63650000D01*
%TO.C,J1*%
X165170000Y-102800000D02*
X165170000Y-105200000D01*
X162870000Y-107500000D02*
X160470000Y-107500000D01*
X160470000Y-100500000D02*
X162870000Y-100500000D01*
X158170000Y-102800000D02*
X158170000Y-105200000D01*
D13*
%TO.C,D7*%
X89527500Y-54665000D02*
X89527500Y-56585000D01*
X89527500Y-56585000D02*
X92212500Y-56585000D01*
X92212500Y-54665000D02*
X89527500Y-54665000D01*
%TO.C,R13*%
X103627064Y-87240000D02*
X103172936Y-87240000D01*
X103627064Y-88710000D02*
X103172936Y-88710000D01*
%TO.C,J6*%
X138000000Y-81505000D02*
X138000000Y-80175000D01*
X139330000Y-81505000D02*
X138000000Y-81505000D01*
X140600000Y-78845000D02*
X148280000Y-78845000D01*
X140600000Y-81505000D02*
X140600000Y-78845000D01*
X140600000Y-81505000D02*
X148280000Y-81505000D01*
X148280000Y-81505000D02*
X148280000Y-78845000D01*
%TO.C,C10*%
X85186252Y-81865000D02*
X84663748Y-81865000D01*
X85186252Y-83335000D02*
X84663748Y-83335000D01*
%TO.C,R9*%
X119465000Y-82672936D02*
X119465000Y-83127064D01*
X120935000Y-82672936D02*
X120935000Y-83127064D01*
%TO.C,D2*%
X116440000Y-85737500D02*
X116440000Y-88422500D01*
X116440000Y-88422500D02*
X118360000Y-88422500D01*
X118360000Y-88422500D02*
X118360000Y-85737500D01*
%TO.C,J2*%
X76166667Y-85426667D02*
X76166667Y-85926667D01*
X76406667Y-85666667D02*
X76406667Y-106106667D01*
X76906667Y-85426667D02*
X76166667Y-85426667D01*
X76966667Y-85666667D02*
X76966667Y-106106667D01*
X78466667Y-85666667D02*
X78466667Y-106106667D01*
X79827667Y-92312667D02*
X79792667Y-92277667D01*
X79827667Y-97392667D02*
X79792667Y-97357667D01*
X79827667Y-102472667D02*
X79792667Y-102437667D01*
X80043667Y-92119667D02*
X79997667Y-92072667D01*
X80043667Y-97199667D02*
X79997667Y-97152667D01*
X80043667Y-102279667D02*
X79997667Y-102232667D01*
X82135667Y-94621667D02*
X82089667Y-94574667D01*
X82135667Y-99701667D02*
X82089667Y-99654667D01*
X82135667Y-104781667D02*
X82089667Y-104734667D01*
X82341667Y-94416667D02*
X82305667Y-94381667D01*
X82341667Y-99496667D02*
X82305667Y-99461667D01*
X82341667Y-104576667D02*
X82305667Y-104541667D01*
X83367667Y-85666667D02*
X83367667Y-106106667D01*
X86327667Y-85666667D02*
X76406667Y-85666667D01*
X86327667Y-85666667D02*
X86327667Y-106106667D01*
X86327667Y-106106667D02*
X76406667Y-106106667D01*
X79386414Y-88295472D02*
G75*
G02*
X79531667Y-87582667I1680254J28806D01*
G01*
X79531911Y-88949985D02*
G75*
G02*
X79386667Y-88266667I1534756J683318D01*
G01*
X80383625Y-86731240D02*
G75*
G02*
X81750667Y-86731667I683041J-1535420D01*
G01*
X81749709Y-89802094D02*
G75*
G02*
X80382667Y-89801667I-683042J1535427D01*
G01*
X82602094Y-87583625D02*
G75*
G02*
X82601667Y-88950667I-1535420J-683041D01*
G01*
X82746667Y-93346667D02*
G75*
G02*
X79386667Y-93346667I-1680000J0D01*
G01*
X79386667Y-93346667D02*
G75*
G02*
X82746667Y-93346667I1680000J0D01*
G01*
X82746667Y-98426667D02*
G75*
G02*
X79386667Y-98426667I-1680000J0D01*
G01*
X79386667Y-98426667D02*
G75*
G02*
X82746667Y-98426667I1680000J0D01*
G01*
X82746667Y-103506667D02*
G75*
G02*
X79386667Y-103506667I-1680000J0D01*
G01*
X79386667Y-103506667D02*
G75*
G02*
X82746667Y-103506667I1680000J0D01*
G01*
%TO.C,C2*%
X109465000Y-62538748D02*
X109465000Y-63061252D01*
X110935000Y-62538748D02*
X110935000Y-63061252D01*
%TO.C,R12*%
X90372936Y-66665000D02*
X90827064Y-66665000D01*
X90372936Y-68135000D02*
X90827064Y-68135000D01*
%TO.C,R4*%
X150115000Y-67289564D02*
X150115000Y-66835436D01*
X151585000Y-67289564D02*
X151585000Y-66835436D01*
%TO.C,D5*%
X119240000Y-85737500D02*
X119240000Y-88422500D01*
X119240000Y-88422500D02*
X121160000Y-88422500D01*
X121160000Y-88422500D02*
X121160000Y-85737500D01*
D14*
%TO.C,J3*%
X76176250Y-69567500D02*
X76176250Y-78507500D01*
X76176250Y-78507500D02*
X77666250Y-78507500D01*
X77666250Y-69567500D02*
X76176250Y-69567500D01*
X81596250Y-69567500D02*
X80386250Y-69567500D01*
X81596250Y-78507500D02*
X80386250Y-78507500D01*
X84786250Y-70257500D02*
G75*
G02*
X84586250Y-70257500I-100000J0D01*
G01*
X84586250Y-70257500D02*
G75*
G02*
X84786250Y-70257500I100000J0D01*
G01*
D13*
%TO.C,R5*%
X135177064Y-79440000D02*
X134722936Y-79440000D01*
X135177064Y-80910000D02*
X134722936Y-80910000D01*
D14*
%TO.C,U5*%
X138200000Y-91575000D02*
X154200000Y-91575000D01*
X154200000Y-107575000D02*
X138200000Y-107575000D01*
X136741547Y-92575000D02*
G75*
G02*
X136158453Y-92575000I-291547J0D01*
G01*
X136158453Y-92575000D02*
G75*
G02*
X136741547Y-92575000I291547J0D01*
G01*
D15*
X136700000Y-92767200D02*
X136188500Y-92767200D01*
X136188500Y-92375000D01*
X136700000Y-92375000D01*
X136700000Y-92767200D01*
G36*
X136700000Y-92767200D02*
G01*
X136188500Y-92767200D01*
X136188500Y-92375000D01*
X136700000Y-92375000D01*
X136700000Y-92767200D01*
G37*
D12*
%TO.C,SW1*%
X136000000Y-56300000D02*
X136000000Y-62300000D01*
X136000000Y-62300000D02*
X142000000Y-62300000D01*
X142000000Y-56300000D02*
X136000000Y-56300000D01*
X142000000Y-62300000D02*
X142000000Y-56300000D01*
D14*
X136850000Y-65550000D02*
G75*
G02*
X136650000Y-65550000I-100000J0D01*
G01*
X136650000Y-65550000D02*
G75*
G02*
X136850000Y-65550000I100000J0D01*
G01*
D12*
%TO.C,U3*%
X89500000Y-93525000D02*
X92500000Y-93525000D01*
X89500000Y-96525000D02*
X92500000Y-96525000D01*
D14*
X87600000Y-93775000D02*
G75*
G02*
X87400000Y-93775000I-100000J0D01*
G01*
X87400000Y-93775000D02*
G75*
G02*
X87600000Y-93775000I100000J0D01*
G01*
D13*
%TO.C,R10*%
X91072936Y-72265000D02*
X91527064Y-72265000D01*
X91072936Y-73735000D02*
X91527064Y-73735000D01*
%TO.C,C8*%
X157213748Y-96490000D02*
X157736252Y-96490000D01*
X157213748Y-97960000D02*
X157736252Y-97960000D01*
%TO.C,R6*%
X134290000Y-86639564D02*
X134290000Y-86185436D01*
X135760000Y-86639564D02*
X135760000Y-86185436D01*
%TO.C,R15*%
X90689564Y-80140000D02*
X90235436Y-80140000D01*
X90689564Y-81610000D02*
X90235436Y-81610000D01*
%TO.C,C9*%
X157188748Y-94265000D02*
X157711252Y-94265000D01*
X157188748Y-95735000D02*
X157711252Y-95735000D01*
%TO.C,R11*%
X122265000Y-82672936D02*
X122265000Y-83127064D01*
X123735000Y-82672936D02*
X123735000Y-83127064D01*
%TD*%
M02*
