%TF.GenerationSoftware,KiCad,Pcbnew,9.0.2*%
%TF.CreationDate,2025-06-16T16:22:31-03:00*%
%TF.ProjectId,dataLogger,64617461-4c6f-4676-9765-722e6b696361,rev?*%
%TF.SameCoordinates,Original*%
%TF.FileFunction,Copper,L3,Inr*%
%TF.FilePolarity,Positive*%
%FSLAX46Y46*%
G04 Gerber Fmt 4.6, Leading zero omitted, Abs format (unit mm)*
G04 Created by KiCad (PCBNEW 9.0.2) date 2025-06-16 16:22:31*
%MOMM*%
%LPD*%
G01*
G04 APERTURE LIST*
%TA.AperFunction,ComponentPad*%
%ADD10C,5.600000*%
%TD*%
%TA.AperFunction,ComponentPad*%
%ADD11R,1.700000X1.700000*%
%TD*%
%TA.AperFunction,ComponentPad*%
%ADD12O,1.700000X1.700000*%
%TD*%
%TA.AperFunction,ComponentPad*%
%ADD13C,0.400000*%
%TD*%
%TA.AperFunction,ComponentPad*%
%ADD14C,2.400000*%
%TD*%
%TA.AperFunction,ComponentPad*%
%ADD15C,2.600000*%
%TD*%
%TA.AperFunction,ViaPad*%
%ADD16C,0.700000*%
%TD*%
%TA.AperFunction,ViaPad*%
%ADD17C,0.800000*%
%TD*%
%TA.AperFunction,ViaPad*%
%ADD18C,0.600000*%
%TD*%
%TA.AperFunction,ViaPad*%
%ADD19C,0.500000*%
%TD*%
G04 APERTURE END LIST*
D10*
%TO.N,GND*%
%TO.C,H1*%
X159464431Y-58592974D03*
%TD*%
D11*
%TO.N,+3V3*%
%TO.C,J7*%
X139330000Y-73025000D03*
D12*
%TO.N,UART0_RX*%
X141870000Y-73025000D03*
%TO.N,UART0_TX*%
X144410000Y-73025000D03*
%TO.N,GND*%
X146950000Y-73025000D03*
%TD*%
D13*
%TO.N,GND*%
%TO.C,U2*%
X119741239Y-67500000D03*
X118341239Y-67500000D03*
X121141239Y-67500000D03*
X118341239Y-68900000D03*
X119741239Y-68900000D03*
X121141239Y-68900000D03*
X119041239Y-66800000D03*
X120441239Y-66800000D03*
X119041239Y-68200000D03*
X120441239Y-68200000D03*
X119041239Y-69600000D03*
X120441239Y-69600000D03*
%TD*%
D11*
%TO.N,+3V3*%
%TO.C,J8*%
X139330000Y-87325000D03*
D12*
%TO.N,SCK*%
X141870000Y-87325000D03*
%TO.N,MOSI*%
X144410000Y-87325000D03*
%TO.N,MISO*%
X146950000Y-87325000D03*
%TO.N,CS*%
X149490000Y-87325000D03*
%TO.N,GND*%
X152030000Y-87325000D03*
%TD*%
D14*
%TO.N,GND*%
%TO.C,J1*%
X164210000Y-101460000D03*
X164210000Y-106540000D03*
X159130000Y-106540000D03*
X159130000Y-101460000D03*
%TO.N,Net-(U5-ANT)*%
X161670000Y-104000000D03*
%TD*%
D11*
%TO.N,+3V3*%
%TO.C,J6*%
X139330000Y-80175000D03*
D12*
%TO.N,SCL*%
X141870000Y-80175000D03*
%TO.N,SDA*%
X144410000Y-80175000D03*
%TO.N,GND*%
X146950000Y-80175000D03*
%TD*%
D10*
%TO.N,GND*%
%TO.C,H2*%
X82393046Y-58593046D03*
%TD*%
D15*
%TO.N,Net-(J2-Pin_1)*%
%TO.C,J2*%
X81066667Y-88266667D03*
%TO.N,Net-(J2-Pin_2)*%
X81066667Y-93346667D03*
%TO.N,Net-(J2-Pin_3)*%
X81066667Y-98426667D03*
%TO.N,Net-(J2-Pin_4)*%
X81066667Y-103506667D03*
%TD*%
D10*
%TO.N,GND*%
%TO.C,H3*%
X159464291Y-135664290D03*
%TD*%
%TO.N,GND*%
%TO.C,H4*%
X82393056Y-135664343D03*
%TD*%
D16*
%TO.N,GND*%
X157345338Y-102981350D03*
X156372669Y-103790675D03*
X155400000Y-104600000D03*
X157442463Y-105642463D03*
X156372669Y-106621232D03*
X155400000Y-107600000D03*
X159600000Y-97300000D03*
X159600000Y-95100000D03*
X110200000Y-64900000D03*
D17*
X160070000Y-121400000D03*
%TO.N,+BATT*%
X80730000Y-121400000D03*
D16*
%TO.N,FG_ALRT*%
X99400000Y-90050000D03*
X99400000Y-88500000D03*
%TO.N,+BATT*%
X97300000Y-70700000D03*
%TO.N,GND*%
X110500000Y-57050000D03*
D18*
%TO.N,CHIP_PU*%
X143850000Y-61550000D03*
X114700000Y-63000000D03*
%TO.N,+3V3*%
X107500000Y-70700000D03*
D16*
X111050000Y-87050000D03*
D18*
X107500000Y-71800000D03*
D16*
%TO.N,+BATT*%
X97300000Y-93350000D03*
D18*
%TO.N,LORA_RST*%
X132350000Y-87725000D03*
X132625000Y-61850000D03*
X131250000Y-97600000D03*
X135425000Y-98375000D03*
%TO.N,+VBUS_5V*%
X87900000Y-79725000D03*
X87175000Y-82600000D03*
%TO.N,ADC_RDY*%
X87000000Y-94000000D03*
X90000000Y-87200000D03*
D16*
%TO.N,SCL*%
X125686239Y-80036239D03*
X129625000Y-80225000D03*
D18*
%TO.N,Net-(J3-CC2)*%
X85600000Y-78800000D03*
X86100000Y-76600000D03*
D19*
%TO.N,/DN*%
X85043750Y-73212500D03*
X86200000Y-74550000D03*
D16*
%TO.N,+BATT*%
X97300000Y-69950000D03*
%TD*%
%TA.AperFunction,Conductor*%
%TO.N,GND*%
G36*
X155938754Y-52629140D02*
G01*
X156521436Y-52647453D01*
X156529184Y-52647941D01*
X157115600Y-52703376D01*
X157123313Y-52704351D01*
X157705060Y-52796491D01*
X157712674Y-52797943D01*
X158287535Y-52926441D01*
X158295058Y-52928374D01*
X158860660Y-53092697D01*
X158868067Y-53095103D01*
X159422252Y-53294623D01*
X159429486Y-53297488D01*
X159970043Y-53531409D01*
X159977091Y-53534725D01*
X160501892Y-53802126D01*
X160508718Y-53805879D01*
X161015688Y-54105701D01*
X161022265Y-54109875D01*
X161509404Y-54440935D01*
X161515702Y-54445510D01*
X161558969Y-54479072D01*
X161981105Y-54806514D01*
X161987107Y-54811479D01*
X162428929Y-55200998D01*
X162434607Y-55206331D01*
X162851073Y-55622797D01*
X162856406Y-55628475D01*
X163245925Y-56070298D01*
X163250890Y-56076300D01*
X163611890Y-56541698D01*
X163616469Y-56548001D01*
X163947528Y-57035141D01*
X163951702Y-57041718D01*
X164251523Y-57548687D01*
X164255276Y-57555513D01*
X164522677Y-58080315D01*
X164525993Y-58087363D01*
X164759914Y-58627920D01*
X164762782Y-58635163D01*
X164962297Y-59189337D01*
X164964704Y-59196746D01*
X165129024Y-59762337D01*
X165130962Y-59769882D01*
X165259453Y-60344713D01*
X165260912Y-60352365D01*
X165353048Y-60934087D01*
X165354025Y-60941815D01*
X165409457Y-61528209D01*
X165409946Y-61535984D01*
X165428518Y-62126886D01*
X165428579Y-62130576D01*
X165428579Y-62194472D01*
X165428685Y-62194870D01*
X165428699Y-62203276D01*
X165428688Y-62203313D01*
X165428699Y-62203481D01*
X165428579Y-132062686D01*
X165428579Y-132126625D01*
X165428518Y-132130520D01*
X165409955Y-132721192D01*
X165409466Y-132728966D01*
X165354034Y-133315374D01*
X165353057Y-133323103D01*
X165260919Y-133904842D01*
X165259460Y-133912494D01*
X165130966Y-134487341D01*
X165129028Y-134494886D01*
X164964704Y-135060493D01*
X164962297Y-135067901D01*
X164762777Y-135622090D01*
X164759910Y-135629333D01*
X164525983Y-136169905D01*
X164522666Y-136176954D01*
X164255259Y-136701771D01*
X164251506Y-136708597D01*
X163951677Y-137215581D01*
X163947503Y-137222158D01*
X163616434Y-137709311D01*
X163611855Y-137715614D01*
X163250845Y-138181025D01*
X163245880Y-138187027D01*
X162856350Y-138628862D01*
X162851017Y-138634540D01*
X162434540Y-139051017D01*
X162428862Y-139056350D01*
X161987027Y-139445880D01*
X161981025Y-139450845D01*
X161515614Y-139811855D01*
X161509311Y-139816434D01*
X161022158Y-140147503D01*
X161015581Y-140151677D01*
X160508597Y-140451506D01*
X160501771Y-140455259D01*
X159976954Y-140722666D01*
X159969905Y-140725983D01*
X159429333Y-140959910D01*
X159422090Y-140962777D01*
X158867901Y-141162297D01*
X158860493Y-141164704D01*
X158294886Y-141329028D01*
X158287341Y-141330966D01*
X157712494Y-141459460D01*
X157704842Y-141460919D01*
X157123103Y-141553057D01*
X157115374Y-141554034D01*
X156528966Y-141609466D01*
X156521192Y-141609955D01*
X155938475Y-141628268D01*
X155934580Y-141628329D01*
X85930534Y-141628329D01*
X85926639Y-141628268D01*
X85336000Y-141609705D01*
X85328225Y-141609216D01*
X84741845Y-141553785D01*
X84734117Y-141552808D01*
X84152411Y-141460675D01*
X84144759Y-141459216D01*
X83569942Y-141330728D01*
X83562397Y-141328790D01*
X82996821Y-141164474D01*
X82989412Y-141162067D01*
X82435258Y-140962559D01*
X82428015Y-140959691D01*
X81887461Y-140725771D01*
X81880413Y-140722455D01*
X81355630Y-140455064D01*
X81348804Y-140451311D01*
X80841847Y-140151498D01*
X80835270Y-140147324D01*
X80348135Y-139816267D01*
X80341833Y-139811688D01*
X79876463Y-139450710D01*
X79870460Y-139445745D01*
X79428641Y-139056230D01*
X79422963Y-139050897D01*
X79006508Y-138634442D01*
X79001175Y-138628764D01*
X78611659Y-138186945D01*
X78606694Y-138180943D01*
X78245694Y-137715544D01*
X78241146Y-137709284D01*
X77910095Y-137222158D01*
X77910079Y-137222134D01*
X77905905Y-137215557D01*
X77606091Y-136708602D01*
X77602338Y-136701776D01*
X77334947Y-136176993D01*
X77331631Y-136169945D01*
X77097711Y-135629391D01*
X77094843Y-135622148D01*
X77070914Y-135555684D01*
X76895334Y-135067992D01*
X76892928Y-135060585D01*
X76892901Y-135060493D01*
X76728608Y-134494998D01*
X76726673Y-134487464D01*
X76726646Y-134487341D01*
X76598181Y-133912629D01*
X76596729Y-133905015D01*
X76504591Y-133323282D01*
X76503615Y-133315561D01*
X76448183Y-132729167D01*
X76447696Y-132721425D01*
X76429260Y-132134870D01*
X76429200Y-132131099D01*
X76429195Y-129277065D01*
X90924500Y-129277065D01*
X90924500Y-129522934D01*
X90951227Y-129725939D01*
X90956591Y-129766677D01*
X90956592Y-129766679D01*
X91020222Y-130004152D01*
X91020225Y-130004162D01*
X91114303Y-130231285D01*
X91114306Y-130231292D01*
X91237233Y-130444208D01*
X91237235Y-130444211D01*
X91237236Y-130444212D01*
X91386897Y-130639254D01*
X91386903Y-130639261D01*
X91560738Y-130813096D01*
X91560744Y-130813101D01*
X91755792Y-130962767D01*
X91968708Y-131085694D01*
X92195847Y-131179778D01*
X92433323Y-131243409D01*
X92677073Y-131275500D01*
X92677080Y-131275500D01*
X92922920Y-131275500D01*
X92922927Y-131275500D01*
X93166677Y-131243409D01*
X93404153Y-131179778D01*
X93631292Y-131085694D01*
X93844208Y-130962767D01*
X94039256Y-130813101D01*
X94213101Y-130639256D01*
X94362767Y-130444208D01*
X94485694Y-130231292D01*
X94579778Y-130004153D01*
X94643409Y-129766677D01*
X94675500Y-129522927D01*
X94675500Y-129277073D01*
X94643409Y-129033323D01*
X94579778Y-128795847D01*
X94485694Y-128568708D01*
X94362767Y-128355792D01*
X94213101Y-128160744D01*
X94213096Y-128160738D01*
X94039261Y-127986903D01*
X94039254Y-127986897D01*
X93844212Y-127837236D01*
X93844211Y-127837235D01*
X93844208Y-127837233D01*
X93631292Y-127714306D01*
X93631285Y-127714303D01*
X93404162Y-127620225D01*
X93404155Y-127620223D01*
X93404153Y-127620222D01*
X93166677Y-127556591D01*
X93125939Y-127551227D01*
X92922934Y-127524500D01*
X92922927Y-127524500D01*
X92677073Y-127524500D01*
X92677065Y-127524500D01*
X92445059Y-127555045D01*
X92433323Y-127556591D01*
X92195847Y-127620222D01*
X92195837Y-127620225D01*
X91968714Y-127714303D01*
X91968705Y-127714307D01*
X91755787Y-127837236D01*
X91560745Y-127986897D01*
X91560738Y-127986903D01*
X91386903Y-128160738D01*
X91386897Y-128160745D01*
X91237236Y-128355787D01*
X91114307Y-128568705D01*
X91114303Y-128568714D01*
X91020225Y-128795837D01*
X91020222Y-128795847D01*
X90956592Y-129033320D01*
X90956590Y-129033331D01*
X90924500Y-129277065D01*
X76429195Y-129277065D01*
X76429182Y-121320943D01*
X80129500Y-121320943D01*
X80129500Y-121479056D01*
X80170423Y-121631783D01*
X80170426Y-121631790D01*
X80249475Y-121768709D01*
X80249479Y-121768714D01*
X80249480Y-121768716D01*
X80361284Y-121880520D01*
X80361286Y-121880521D01*
X80361290Y-121880524D01*
X80498209Y-121959573D01*
X80498216Y-121959577D01*
X80650943Y-122000500D01*
X80650945Y-122000500D01*
X80809055Y-122000500D01*
X80809057Y-122000500D01*
X80961784Y-121959577D01*
X81098716Y-121880520D01*
X81210520Y-121768716D01*
X81289577Y-121631784D01*
X81330500Y-121479057D01*
X81330500Y-121320943D01*
X81289577Y-121168216D01*
X81289573Y-121168209D01*
X81210524Y-121031290D01*
X81210518Y-121031282D01*
X81098717Y-120919481D01*
X81098709Y-120919475D01*
X80961790Y-120840426D01*
X80961786Y-120840424D01*
X80961784Y-120840423D01*
X80809057Y-120799500D01*
X80650943Y-120799500D01*
X80498216Y-120840423D01*
X80498209Y-120840426D01*
X80361290Y-120919475D01*
X80361282Y-120919481D01*
X80249481Y-121031282D01*
X80249475Y-121031290D01*
X80170426Y-121168209D01*
X80170423Y-121168216D01*
X80129500Y-121320943D01*
X76429182Y-121320943D01*
X76429172Y-115085692D01*
X76429169Y-113294101D01*
X83234500Y-113294101D01*
X83234500Y-113505898D01*
X83267629Y-113715072D01*
X83333077Y-113916497D01*
X83429225Y-114105196D01*
X83553710Y-114276535D01*
X83703465Y-114426290D01*
X83874804Y-114550775D01*
X83963958Y-114596201D01*
X84063502Y-114646922D01*
X84063504Y-114646922D01*
X84063507Y-114646924D01*
X84171472Y-114682004D01*
X84264927Y-114712370D01*
X84474102Y-114745500D01*
X84474107Y-114745500D01*
X84685898Y-114745500D01*
X84895072Y-114712370D01*
X85096493Y-114646924D01*
X85285196Y-114550775D01*
X85456535Y-114426290D01*
X85606290Y-114276535D01*
X85730775Y-114105196D01*
X85826924Y-113916493D01*
X85892370Y-113715072D01*
X85925500Y-113505898D01*
X85925500Y-113294104D01*
X85925233Y-113292419D01*
X85925233Y-113292416D01*
X85925232Y-113292412D01*
X85922801Y-113277065D01*
X146124500Y-113277065D01*
X146124500Y-113522934D01*
X146149797Y-113715072D01*
X146156591Y-113766677D01*
X146156592Y-113766679D01*
X146220222Y-114004152D01*
X146220225Y-114004162D01*
X146262075Y-114105196D01*
X146314306Y-114231292D01*
X146437233Y-114444208D01*
X146437235Y-114444211D01*
X146437236Y-114444212D01*
X146586897Y-114639254D01*
X146586903Y-114639261D01*
X146760738Y-114813096D01*
X146760744Y-114813101D01*
X146955792Y-114962767D01*
X147168708Y-115085694D01*
X147395847Y-115179778D01*
X147633323Y-115243409D01*
X147877073Y-115275500D01*
X147877080Y-115275500D01*
X148122920Y-115275500D01*
X148122927Y-115275500D01*
X148366677Y-115243409D01*
X148604153Y-115179778D01*
X148831292Y-115085694D01*
X149044208Y-114962767D01*
X149239256Y-114813101D01*
X149413101Y-114639256D01*
X149562767Y-114444208D01*
X149685694Y-114231292D01*
X149779778Y-114004153D01*
X149843409Y-113766677D01*
X149875500Y-113522927D01*
X149875500Y-113277073D01*
X149843409Y-113033323D01*
X149779778Y-112795847D01*
X149685694Y-112568708D01*
X149562767Y-112355792D01*
X149413101Y-112160744D01*
X149413096Y-112160738D01*
X149239261Y-111986903D01*
X149239254Y-111986897D01*
X149044212Y-111837236D01*
X149044211Y-111837235D01*
X149044208Y-111837233D01*
X148831292Y-111714306D01*
X148831285Y-111714303D01*
X148604162Y-111620225D01*
X148604155Y-111620223D01*
X148604153Y-111620222D01*
X148366677Y-111556591D01*
X148325939Y-111551227D01*
X148122934Y-111524500D01*
X148122927Y-111524500D01*
X147877073Y-111524500D01*
X147877065Y-111524500D01*
X147645059Y-111555045D01*
X147633323Y-111556591D01*
X147395847Y-111620222D01*
X147395837Y-111620225D01*
X147168714Y-111714303D01*
X147168705Y-111714307D01*
X146955787Y-111837236D01*
X146760745Y-111986897D01*
X146760738Y-111986903D01*
X146586903Y-112160738D01*
X146586897Y-112160745D01*
X146437236Y-112355787D01*
X146314307Y-112568705D01*
X146314303Y-112568714D01*
X146220225Y-112795837D01*
X146220222Y-112795847D01*
X146156592Y-113033320D01*
X146156590Y-113033331D01*
X146124500Y-113277065D01*
X85922801Y-113277065D01*
X85913684Y-113219502D01*
X85892370Y-113084928D01*
X85826924Y-112883507D01*
X85826922Y-112883504D01*
X85826922Y-112883502D01*
X85730774Y-112694803D01*
X85639165Y-112568714D01*
X85606290Y-112523465D01*
X85456535Y-112373710D01*
X85285196Y-112249225D01*
X85096497Y-112153077D01*
X84895072Y-112087629D01*
X84685898Y-112054500D01*
X84685893Y-112054500D01*
X84474107Y-112054500D01*
X84474102Y-112054500D01*
X84264927Y-112087629D01*
X84063502Y-112153077D01*
X83874803Y-112249225D01*
X83703462Y-112373712D01*
X83553712Y-112523462D01*
X83429225Y-112694803D01*
X83333077Y-112883502D01*
X83267629Y-113084927D01*
X83234500Y-113294101D01*
X76429169Y-113294101D01*
X76429169Y-113289235D01*
X76429152Y-103388569D01*
X79566167Y-103388569D01*
X79566167Y-103624764D01*
X79603113Y-103858035D01*
X79676100Y-104082663D01*
X79783324Y-104293100D01*
X79922150Y-104484177D01*
X80089157Y-104651184D01*
X80280234Y-104790010D01*
X80379658Y-104840669D01*
X80490670Y-104897233D01*
X80490672Y-104897233D01*
X80490675Y-104897235D01*
X80611079Y-104936356D01*
X80715298Y-104970220D01*
X80948570Y-105007167D01*
X80948575Y-105007167D01*
X81184764Y-105007167D01*
X81418035Y-104970220D01*
X81642659Y-104897235D01*
X81853100Y-104790010D01*
X82044177Y-104651184D01*
X82211184Y-104484177D01*
X82350010Y-104293100D01*
X82457235Y-104082659D01*
X82519906Y-103889778D01*
X160269500Y-103889778D01*
X160269500Y-104110221D01*
X160303985Y-104327952D01*
X160372103Y-104537603D01*
X160372104Y-104537606D01*
X160472187Y-104734025D01*
X160601752Y-104912358D01*
X160601756Y-104912363D01*
X160757636Y-105068243D01*
X160757641Y-105068247D01*
X160913192Y-105181260D01*
X160935978Y-105197815D01*
X161064375Y-105263237D01*
X161132393Y-105297895D01*
X161132396Y-105297896D01*
X161237221Y-105331955D01*
X161342049Y-105366015D01*
X161559778Y-105400500D01*
X161559779Y-105400500D01*
X161780221Y-105400500D01*
X161780222Y-105400500D01*
X161997951Y-105366015D01*
X162207606Y-105297895D01*
X162404022Y-105197815D01*
X162582365Y-105068242D01*
X162738242Y-104912365D01*
X162867815Y-104734022D01*
X162967895Y-104537606D01*
X163036015Y-104327951D01*
X163070500Y-104110222D01*
X163070500Y-103889778D01*
X163036015Y-103672049D01*
X162967895Y-103462394D01*
X162967895Y-103462393D01*
X162930279Y-103388569D01*
X162867815Y-103265978D01*
X162851260Y-103243192D01*
X162738247Y-103087641D01*
X162738243Y-103087636D01*
X162582363Y-102931756D01*
X162582358Y-102931752D01*
X162404025Y-102802187D01*
X162404024Y-102802186D01*
X162404022Y-102802185D01*
X162341096Y-102770122D01*
X162207606Y-102702104D01*
X162207603Y-102702103D01*
X161997952Y-102633985D01*
X161889086Y-102616742D01*
X161780222Y-102599500D01*
X161559778Y-102599500D01*
X161487201Y-102610995D01*
X161342047Y-102633985D01*
X161132396Y-102702103D01*
X161132393Y-102702104D01*
X160935974Y-102802187D01*
X160757641Y-102931752D01*
X160757636Y-102931756D01*
X160601756Y-103087636D01*
X160601752Y-103087641D01*
X160472187Y-103265974D01*
X160372104Y-103462393D01*
X160372103Y-103462396D01*
X160303985Y-103672047D01*
X160269500Y-103889778D01*
X82519906Y-103889778D01*
X82530220Y-103858035D01*
X82567167Y-103624764D01*
X82567167Y-103388569D01*
X82530220Y-103155298D01*
X82457233Y-102930670D01*
X82350009Y-102720233D01*
X82336838Y-102702105D01*
X82211184Y-102529157D01*
X82044177Y-102362150D01*
X81853100Y-102223324D01*
X81642663Y-102116100D01*
X81418035Y-102043113D01*
X81184764Y-102006167D01*
X81184759Y-102006167D01*
X80948575Y-102006167D01*
X80948570Y-102006167D01*
X80715298Y-102043113D01*
X80490670Y-102116100D01*
X80280233Y-102223324D01*
X80171217Y-102302529D01*
X80089157Y-102362150D01*
X80089155Y-102362152D01*
X80089154Y-102362152D01*
X79922152Y-102529154D01*
X79922152Y-102529155D01*
X79922150Y-102529157D01*
X79871043Y-102599500D01*
X79783324Y-102720233D01*
X79676100Y-102930670D01*
X79603113Y-103155298D01*
X79566167Y-103388569D01*
X76429152Y-103388569D01*
X76429152Y-103383703D01*
X76429143Y-98308569D01*
X79566167Y-98308569D01*
X79566167Y-98544764D01*
X79603113Y-98778035D01*
X79676100Y-99002663D01*
X79783324Y-99213100D01*
X79922150Y-99404177D01*
X80089157Y-99571184D01*
X80280234Y-99710010D01*
X80379658Y-99760669D01*
X80490670Y-99817233D01*
X80490672Y-99817233D01*
X80490675Y-99817235D01*
X80611079Y-99856356D01*
X80715298Y-99890220D01*
X80948570Y-99927167D01*
X80948575Y-99927167D01*
X81184764Y-99927167D01*
X81418035Y-99890220D01*
X81642659Y-99817235D01*
X81853100Y-99710010D01*
X82044177Y-99571184D01*
X82211184Y-99404177D01*
X82350010Y-99213100D01*
X82457235Y-99002659D01*
X82530220Y-98778035D01*
X82530622Y-98775497D01*
X82567167Y-98544764D01*
X82567167Y-98309108D01*
X134924500Y-98309108D01*
X134924500Y-98440891D01*
X134958608Y-98568187D01*
X134991554Y-98625250D01*
X135024500Y-98682314D01*
X135117686Y-98775500D01*
X135231814Y-98841392D01*
X135359108Y-98875500D01*
X135359110Y-98875500D01*
X135490890Y-98875500D01*
X135490892Y-98875500D01*
X135618186Y-98841392D01*
X135732314Y-98775500D01*
X135825500Y-98682314D01*
X135891392Y-98568186D01*
X135925500Y-98440892D01*
X135925500Y-98309108D01*
X135891392Y-98181814D01*
X135825500Y-98067686D01*
X135732314Y-97974500D01*
X135675250Y-97941554D01*
X135618187Y-97908608D01*
X135554539Y-97891554D01*
X135490892Y-97874500D01*
X135359108Y-97874500D01*
X135231812Y-97908608D01*
X135117686Y-97974500D01*
X135117683Y-97974502D01*
X135024502Y-98067683D01*
X135024500Y-98067686D01*
X134958608Y-98181812D01*
X134924500Y-98309108D01*
X82567167Y-98309108D01*
X82567167Y-98308569D01*
X82530220Y-98075298D01*
X82496356Y-97971079D01*
X82457235Y-97850675D01*
X82457233Y-97850672D01*
X82457233Y-97850670D01*
X82363083Y-97665892D01*
X82350010Y-97640234D01*
X82345454Y-97633964D01*
X82319957Y-97598869D01*
X82319955Y-97598867D01*
X82272905Y-97534108D01*
X130749500Y-97534108D01*
X130749500Y-97665891D01*
X130783608Y-97793187D01*
X130816554Y-97850250D01*
X130849500Y-97907314D01*
X130942686Y-98000500D01*
X131056814Y-98066392D01*
X131184108Y-98100500D01*
X131184110Y-98100500D01*
X131315890Y-98100500D01*
X131315892Y-98100500D01*
X131443186Y-98066392D01*
X131557314Y-98000500D01*
X131650500Y-97907314D01*
X131716392Y-97793186D01*
X131750500Y-97665892D01*
X131750500Y-97534108D01*
X131716392Y-97406814D01*
X131650500Y-97292686D01*
X131557314Y-97199500D01*
X131460015Y-97143324D01*
X131443187Y-97133608D01*
X131379539Y-97116554D01*
X131315892Y-97099500D01*
X131184108Y-97099500D01*
X131056812Y-97133608D01*
X130942686Y-97199500D01*
X130942683Y-97199502D01*
X130849502Y-97292683D01*
X130849500Y-97292686D01*
X130783608Y-97406812D01*
X130749500Y-97534108D01*
X82272905Y-97534108D01*
X82211184Y-97449157D01*
X82044177Y-97282150D01*
X81853100Y-97143324D01*
X81767091Y-97099500D01*
X81642663Y-97036100D01*
X81418035Y-96963113D01*
X81184764Y-96926167D01*
X81184759Y-96926167D01*
X80948575Y-96926167D01*
X80948570Y-96926167D01*
X80715298Y-96963113D01*
X80490670Y-97036100D01*
X80280233Y-97143324D01*
X80202912Y-97199502D01*
X80089157Y-97282150D01*
X80089155Y-97282152D01*
X80089154Y-97282152D01*
X79922152Y-97449154D01*
X79922152Y-97449155D01*
X79922150Y-97449157D01*
X79862529Y-97531217D01*
X79783324Y-97640233D01*
X79676100Y-97850670D01*
X79603113Y-98075298D01*
X79566167Y-98308569D01*
X76429143Y-98308569D01*
X76429134Y-93228569D01*
X79566167Y-93228569D01*
X79566167Y-93464764D01*
X79603113Y-93698035D01*
X79676100Y-93922663D01*
X79783324Y-94133100D01*
X79922150Y-94324177D01*
X80089157Y-94491184D01*
X80280234Y-94630010D01*
X80379658Y-94680669D01*
X80490670Y-94737233D01*
X80490672Y-94737233D01*
X80490675Y-94737235D01*
X80611079Y-94776356D01*
X80715298Y-94810220D01*
X80948570Y-94847167D01*
X80948575Y-94847167D01*
X81184764Y-94847167D01*
X81418035Y-94810220D01*
X81642659Y-94737235D01*
X81853100Y-94630010D01*
X82044177Y-94491184D01*
X82211184Y-94324177D01*
X82350010Y-94133100D01*
X82451401Y-93934108D01*
X86499500Y-93934108D01*
X86499500Y-94065891D01*
X86533608Y-94193187D01*
X86566554Y-94250250D01*
X86599500Y-94307314D01*
X86692686Y-94400500D01*
X86806814Y-94466392D01*
X86934108Y-94500500D01*
X86934110Y-94500500D01*
X87065890Y-94500500D01*
X87065892Y-94500500D01*
X87193186Y-94466392D01*
X87307314Y-94400500D01*
X87400500Y-94307314D01*
X87466392Y-94193186D01*
X87500500Y-94065892D01*
X87500500Y-93934108D01*
X87466392Y-93806814D01*
X87400500Y-93692686D01*
X87307314Y-93599500D01*
X87250250Y-93566554D01*
X87193187Y-93533608D01*
X87129539Y-93516554D01*
X87065892Y-93499500D01*
X86934108Y-93499500D01*
X86806812Y-93533608D01*
X86692686Y-93599500D01*
X86692683Y-93599502D01*
X86599502Y-93692683D01*
X86599500Y-93692686D01*
X86533608Y-93806812D01*
X86499500Y-93934108D01*
X82451401Y-93934108D01*
X82457235Y-93922659D01*
X82530220Y-93698035D01*
X82545826Y-93599502D01*
X82567167Y-93464764D01*
X82567167Y-93277525D01*
X96749500Y-93277525D01*
X96749500Y-93422475D01*
X96787016Y-93562485D01*
X96787017Y-93562488D01*
X96859488Y-93688011D01*
X96859490Y-93688013D01*
X96859491Y-93688015D01*
X96961985Y-93790509D01*
X96961986Y-93790510D01*
X96961988Y-93790511D01*
X97087511Y-93862982D01*
X97087512Y-93862982D01*
X97087515Y-93862984D01*
X97227525Y-93900500D01*
X97227528Y-93900500D01*
X97372472Y-93900500D01*
X97372475Y-93900500D01*
X97512485Y-93862984D01*
X97638015Y-93790509D01*
X97740509Y-93688015D01*
X97812984Y-93562485D01*
X97850500Y-93422475D01*
X97850500Y-93277525D01*
X97812984Y-93137515D01*
X97740509Y-93011985D01*
X97638015Y-92909491D01*
X97638013Y-92909490D01*
X97638011Y-92909488D01*
X97512488Y-92837017D01*
X97512489Y-92837017D01*
X97501006Y-92833940D01*
X97372475Y-92799500D01*
X97227525Y-92799500D01*
X97098993Y-92833940D01*
X97087511Y-92837017D01*
X96961988Y-92909488D01*
X96961982Y-92909493D01*
X96859493Y-93011982D01*
X96859488Y-93011988D01*
X96787017Y-93137511D01*
X96787016Y-93137515D01*
X96749500Y-93277525D01*
X82567167Y-93277525D01*
X82567167Y-93228569D01*
X82530220Y-92995298D01*
X82478791Y-92837017D01*
X82457235Y-92770675D01*
X82457233Y-92770672D01*
X82457233Y-92770670D01*
X82350009Y-92560233D01*
X82211184Y-92369157D01*
X82044177Y-92202150D01*
X81853100Y-92063324D01*
X81642663Y-91956100D01*
X81418035Y-91883113D01*
X81184764Y-91846167D01*
X81184759Y-91846167D01*
X80948575Y-91846167D01*
X80948570Y-91846167D01*
X80715298Y-91883113D01*
X80490670Y-91956100D01*
X80280233Y-92063324D01*
X80171217Y-92142529D01*
X80089157Y-92202150D01*
X80089155Y-92202152D01*
X80089154Y-92202152D01*
X79922152Y-92369154D01*
X79922152Y-92369155D01*
X79922150Y-92369157D01*
X79862529Y-92451217D01*
X79783324Y-92560233D01*
X79676100Y-92770670D01*
X79603113Y-92995298D01*
X79566167Y-93228569D01*
X76429134Y-93228569D01*
X76429134Y-93223703D01*
X76429128Y-89977525D01*
X98849500Y-89977525D01*
X98849500Y-90122475D01*
X98887016Y-90262485D01*
X98887017Y-90262488D01*
X98959488Y-90388011D01*
X98959490Y-90388013D01*
X98959491Y-90388015D01*
X99061985Y-90490509D01*
X99061986Y-90490510D01*
X99061988Y-90490511D01*
X99187511Y-90562982D01*
X99187512Y-90562982D01*
X99187515Y-90562984D01*
X99327525Y-90600500D01*
X99327528Y-90600500D01*
X99472472Y-90600500D01*
X99472475Y-90600500D01*
X99612485Y-90562984D01*
X99738015Y-90490509D01*
X99840509Y-90388015D01*
X99912984Y-90262485D01*
X99950500Y-90122475D01*
X99950500Y-89977525D01*
X99912984Y-89837515D01*
X99872368Y-89767167D01*
X99840511Y-89711988D01*
X99840506Y-89711982D01*
X99738017Y-89609493D01*
X99738011Y-89609488D01*
X99612488Y-89537017D01*
X99612489Y-89537017D01*
X99601006Y-89533940D01*
X99472475Y-89499500D01*
X99327525Y-89499500D01*
X99198993Y-89533940D01*
X99187511Y-89537017D01*
X99061988Y-89609488D01*
X99061982Y-89609493D01*
X98959493Y-89711982D01*
X98959488Y-89711988D01*
X98887017Y-89837511D01*
X98887016Y-89837515D01*
X98849500Y-89977525D01*
X76429128Y-89977525D01*
X76429128Y-89969398D01*
X76429127Y-89657235D01*
X76429124Y-88148569D01*
X79566167Y-88148569D01*
X79566167Y-88384764D01*
X79603113Y-88618035D01*
X79676100Y-88842663D01*
X79725957Y-88940511D01*
X79783324Y-89053100D01*
X79922150Y-89244177D01*
X80089157Y-89411184D01*
X80280234Y-89550010D01*
X80379658Y-89600669D01*
X80490670Y-89657233D01*
X80490672Y-89657233D01*
X80490675Y-89657235D01*
X80611079Y-89696356D01*
X80715298Y-89730220D01*
X80948570Y-89767167D01*
X80948575Y-89767167D01*
X81184764Y-89767167D01*
X81418035Y-89730220D01*
X81474156Y-89711985D01*
X81642659Y-89657235D01*
X81853100Y-89550010D01*
X82044177Y-89411184D01*
X82211184Y-89244177D01*
X82350010Y-89053100D01*
X82457235Y-88842659D01*
X82530220Y-88618035D01*
X82537436Y-88572475D01*
X82560394Y-88427525D01*
X98849500Y-88427525D01*
X98849500Y-88572475D01*
X98887016Y-88712485D01*
X98887017Y-88712488D01*
X98959488Y-88838011D01*
X98959490Y-88838013D01*
X98959491Y-88838015D01*
X99061985Y-88940509D01*
X99061986Y-88940510D01*
X99061988Y-88940511D01*
X99187511Y-89012982D01*
X99187512Y-89012982D01*
X99187515Y-89012984D01*
X99327525Y-89050500D01*
X99327528Y-89050500D01*
X99472472Y-89050500D01*
X99472475Y-89050500D01*
X99612485Y-89012984D01*
X99738015Y-88940509D01*
X99840509Y-88838015D01*
X99912984Y-88712485D01*
X99950500Y-88572475D01*
X99950500Y-88427525D01*
X99912984Y-88287515D01*
X99893189Y-88253230D01*
X99840511Y-88161988D01*
X99840506Y-88161982D01*
X99738017Y-88059493D01*
X99738011Y-88059488D01*
X99612488Y-87987017D01*
X99612489Y-87987017D01*
X99601006Y-87983940D01*
X99472475Y-87949500D01*
X99327525Y-87949500D01*
X99198993Y-87983940D01*
X99187511Y-87987017D01*
X99061988Y-88059488D01*
X99061982Y-88059493D01*
X98959493Y-88161982D01*
X98959488Y-88161988D01*
X98887017Y-88287511D01*
X98887016Y-88287515D01*
X98849500Y-88427525D01*
X82560394Y-88427525D01*
X82564754Y-88400000D01*
X82564754Y-88399999D01*
X82567167Y-88384765D01*
X82567167Y-88148569D01*
X82530220Y-87915298D01*
X82457233Y-87690670D01*
X82392172Y-87562982D01*
X82350010Y-87480234D01*
X82211184Y-87289157D01*
X82056135Y-87134108D01*
X89499500Y-87134108D01*
X89499500Y-87265891D01*
X89533608Y-87393187D01*
X89566554Y-87450250D01*
X89599500Y-87507314D01*
X89692686Y-87600500D01*
X89806814Y-87666392D01*
X89934108Y-87700500D01*
X89934110Y-87700500D01*
X90065890Y-87700500D01*
X90065892Y-87700500D01*
X90193186Y-87666392D01*
X90205802Y-87659108D01*
X131849500Y-87659108D01*
X131849500Y-87790891D01*
X131883608Y-87918187D01*
X131901687Y-87949500D01*
X131949500Y-88032314D01*
X132042686Y-88125500D01*
X132156814Y-88191392D01*
X132284108Y-88225500D01*
X132284110Y-88225500D01*
X132415890Y-88225500D01*
X132415892Y-88225500D01*
X132543186Y-88191392D01*
X132657314Y-88125500D01*
X132750500Y-88032314D01*
X132816392Y-87918186D01*
X132850500Y-87790892D01*
X132850500Y-87659108D01*
X132816392Y-87531814D01*
X132750500Y-87417686D01*
X132657314Y-87324500D01*
X132596093Y-87289154D01*
X132543187Y-87258608D01*
X132479539Y-87241554D01*
X132415892Y-87224500D01*
X132284108Y-87224500D01*
X132156812Y-87258608D01*
X132042686Y-87324500D01*
X132042683Y-87324502D01*
X131949502Y-87417683D01*
X131949500Y-87417686D01*
X131883608Y-87531812D01*
X131849500Y-87659108D01*
X90205802Y-87659108D01*
X90307314Y-87600500D01*
X90400500Y-87507314D01*
X90466392Y-87393186D01*
X90500500Y-87265892D01*
X90500500Y-87134108D01*
X90466392Y-87006814D01*
X90449482Y-86977525D01*
X110499500Y-86977525D01*
X110499500Y-87122475D01*
X110526838Y-87224500D01*
X110537017Y-87262488D01*
X110609488Y-87388011D01*
X110609490Y-87388013D01*
X110609491Y-87388015D01*
X110711985Y-87490509D01*
X110711986Y-87490510D01*
X110711988Y-87490511D01*
X110837511Y-87562982D01*
X110837512Y-87562982D01*
X110837515Y-87562984D01*
X110977525Y-87600500D01*
X110977528Y-87600500D01*
X111122472Y-87600500D01*
X111122475Y-87600500D01*
X111262485Y-87562984D01*
X111388015Y-87490509D01*
X111490509Y-87388015D01*
X111562984Y-87262485D01*
X111600500Y-87122475D01*
X111600500Y-86977525D01*
X111562984Y-86837515D01*
X111557145Y-86827402D01*
X111490511Y-86711988D01*
X111490506Y-86711982D01*
X111388017Y-86609493D01*
X111388015Y-86609491D01*
X111262485Y-86537016D01*
X111122475Y-86499500D01*
X110977525Y-86499500D01*
X110848993Y-86533940D01*
X110837511Y-86537017D01*
X110711988Y-86609488D01*
X110711982Y-86609493D01*
X110609493Y-86711982D01*
X110609488Y-86711988D01*
X110537017Y-86837511D01*
X110537016Y-86837515D01*
X110499500Y-86977525D01*
X90449482Y-86977525D01*
X90400500Y-86892686D01*
X90307314Y-86799500D01*
X90249580Y-86766167D01*
X90193187Y-86733608D01*
X90112476Y-86711982D01*
X90065892Y-86699500D01*
X89934108Y-86699500D01*
X89806812Y-86733608D01*
X89692686Y-86799500D01*
X89692683Y-86799502D01*
X89599502Y-86892683D01*
X89599500Y-86892686D01*
X89533608Y-87006812D01*
X89499500Y-87134108D01*
X82056135Y-87134108D01*
X82044177Y-87122150D01*
X81853100Y-86983324D01*
X81841719Y-86977525D01*
X81642663Y-86876100D01*
X81418035Y-86803113D01*
X81184764Y-86766167D01*
X81184759Y-86766167D01*
X80948575Y-86766167D01*
X80948570Y-86766167D01*
X80715298Y-86803113D01*
X80490670Y-86876100D01*
X80280233Y-86983324D01*
X80171217Y-87062529D01*
X80089157Y-87122150D01*
X80089155Y-87122152D01*
X80089154Y-87122152D01*
X79922152Y-87289154D01*
X79922152Y-87289155D01*
X79922150Y-87289157D01*
X79862529Y-87371217D01*
X79783324Y-87480233D01*
X79676100Y-87690670D01*
X79603113Y-87915298D01*
X79566167Y-88148569D01*
X76429124Y-88148569D01*
X76429121Y-86455247D01*
X138279500Y-86455247D01*
X138279500Y-88194752D01*
X138291131Y-88253229D01*
X138291132Y-88253230D01*
X138335447Y-88319552D01*
X138401769Y-88363867D01*
X138401770Y-88363868D01*
X138460247Y-88375499D01*
X138460250Y-88375500D01*
X138460252Y-88375500D01*
X140199750Y-88375500D01*
X140199751Y-88375499D01*
X140214568Y-88372552D01*
X140258229Y-88363868D01*
X140258229Y-88363867D01*
X140258231Y-88363867D01*
X140324552Y-88319552D01*
X140368867Y-88253231D01*
X140368867Y-88253229D01*
X140368868Y-88253229D01*
X140380499Y-88194752D01*
X140380500Y-88194750D01*
X140380500Y-87221530D01*
X140819500Y-87221530D01*
X140819500Y-87428469D01*
X140859868Y-87631412D01*
X140859870Y-87631420D01*
X140939058Y-87822596D01*
X141054024Y-87994657D01*
X141200342Y-88140975D01*
X141200345Y-88140977D01*
X141372402Y-88255941D01*
X141563580Y-88335130D01*
X141708052Y-88363867D01*
X141766530Y-88375499D01*
X141766534Y-88375500D01*
X141766535Y-88375500D01*
X141973466Y-88375500D01*
X141973467Y-88375499D01*
X142176420Y-88335130D01*
X142367598Y-88255941D01*
X142539655Y-88140977D01*
X142685977Y-87994655D01*
X142800941Y-87822598D01*
X142880130Y-87631420D01*
X142920500Y-87428465D01*
X142920500Y-87221535D01*
X142920499Y-87221530D01*
X143359500Y-87221530D01*
X143359500Y-87428469D01*
X143399868Y-87631412D01*
X143399870Y-87631420D01*
X143479058Y-87822596D01*
X143594024Y-87994657D01*
X143740342Y-88140975D01*
X143740345Y-88140977D01*
X143912402Y-88255941D01*
X144103580Y-88335130D01*
X144248052Y-88363867D01*
X144306530Y-88375499D01*
X144306534Y-88375500D01*
X144306535Y-88375500D01*
X144513466Y-88375500D01*
X144513467Y-88375499D01*
X144716420Y-88335130D01*
X144907598Y-88255941D01*
X145079655Y-88140977D01*
X145225977Y-87994655D01*
X145340941Y-87822598D01*
X145420130Y-87631420D01*
X145460500Y-87428465D01*
X145460500Y-87221535D01*
X145460499Y-87221530D01*
X145899500Y-87221530D01*
X145899500Y-87428469D01*
X145939868Y-87631412D01*
X145939870Y-87631420D01*
X146019058Y-87822596D01*
X146134024Y-87994657D01*
X146280342Y-88140975D01*
X146280345Y-88140977D01*
X146452402Y-88255941D01*
X146643580Y-88335130D01*
X146788052Y-88363867D01*
X146846530Y-88375499D01*
X146846534Y-88375500D01*
X146846535Y-88375500D01*
X147053466Y-88375500D01*
X147053467Y-88375499D01*
X147256420Y-88335130D01*
X147447598Y-88255941D01*
X147619655Y-88140977D01*
X147765977Y-87994655D01*
X147880941Y-87822598D01*
X147960130Y-87631420D01*
X148000500Y-87428465D01*
X148000500Y-87221535D01*
X148000499Y-87221530D01*
X148439500Y-87221530D01*
X148439500Y-87428469D01*
X148479868Y-87631412D01*
X148479870Y-87631420D01*
X148559058Y-87822596D01*
X148674024Y-87994657D01*
X148820342Y-88140975D01*
X148820345Y-88140977D01*
X148992402Y-88255941D01*
X149183580Y-88335130D01*
X149328052Y-88363867D01*
X149386530Y-88375499D01*
X149386534Y-88375500D01*
X149386535Y-88375500D01*
X149593466Y-88375500D01*
X149593467Y-88375499D01*
X149796420Y-88335130D01*
X149987598Y-88255941D01*
X150159655Y-88140977D01*
X150305977Y-87994655D01*
X150420941Y-87822598D01*
X150500130Y-87631420D01*
X150540500Y-87428465D01*
X150540500Y-87221535D01*
X150500130Y-87018580D01*
X150420941Y-86827402D01*
X150305977Y-86655345D01*
X150305975Y-86655342D01*
X150159657Y-86509024D01*
X149991655Y-86396770D01*
X149987598Y-86394059D01*
X149796420Y-86314870D01*
X149796412Y-86314868D01*
X149593469Y-86274500D01*
X149593465Y-86274500D01*
X149386535Y-86274500D01*
X149386530Y-86274500D01*
X149183587Y-86314868D01*
X149183579Y-86314870D01*
X148992403Y-86394058D01*
X148820342Y-86509024D01*
X148674024Y-86655342D01*
X148559058Y-86827403D01*
X148479870Y-87018579D01*
X148479868Y-87018587D01*
X148439500Y-87221530D01*
X148000499Y-87221530D01*
X147960130Y-87018580D01*
X147880941Y-86827402D01*
X147765977Y-86655345D01*
X147765975Y-86655342D01*
X147619657Y-86509024D01*
X147451655Y-86396770D01*
X147447598Y-86394059D01*
X147256420Y-86314870D01*
X147256412Y-86314868D01*
X147053469Y-86274500D01*
X147053465Y-86274500D01*
X146846535Y-86274500D01*
X146846530Y-86274500D01*
X146643587Y-86314868D01*
X146643579Y-86314870D01*
X146452403Y-86394058D01*
X146280342Y-86509024D01*
X146134024Y-86655342D01*
X146019058Y-86827403D01*
X145939870Y-87018579D01*
X145939868Y-87018587D01*
X145899500Y-87221530D01*
X145460499Y-87221530D01*
X145420130Y-87018580D01*
X145340941Y-86827402D01*
X145225977Y-86655345D01*
X145225975Y-86655342D01*
X145079657Y-86509024D01*
X144911655Y-86396770D01*
X144907598Y-86394059D01*
X144716420Y-86314870D01*
X144716412Y-86314868D01*
X144513469Y-86274500D01*
X144513465Y-86274500D01*
X144306535Y-86274500D01*
X144306530Y-86274500D01*
X144103587Y-86314868D01*
X144103579Y-86314870D01*
X143912403Y-86394058D01*
X143740342Y-86509024D01*
X143594024Y-86655342D01*
X143479058Y-86827403D01*
X143399870Y-87018579D01*
X143399868Y-87018587D01*
X143359500Y-87221530D01*
X142920499Y-87221530D01*
X142880130Y-87018580D01*
X142800941Y-86827402D01*
X142685977Y-86655345D01*
X142685975Y-86655342D01*
X142539657Y-86509024D01*
X142371655Y-86396770D01*
X142367598Y-86394059D01*
X142176420Y-86314870D01*
X142176412Y-86314868D01*
X141973469Y-86274500D01*
X141973465Y-86274500D01*
X141766535Y-86274500D01*
X141766530Y-86274500D01*
X141563587Y-86314868D01*
X141563579Y-86314870D01*
X141372403Y-86394058D01*
X141200342Y-86509024D01*
X141054024Y-86655342D01*
X140939058Y-86827403D01*
X140859870Y-87018579D01*
X140859868Y-87018587D01*
X140819500Y-87221530D01*
X140380500Y-87221530D01*
X140380500Y-86455249D01*
X140380499Y-86455247D01*
X140368868Y-86396770D01*
X140368867Y-86396769D01*
X140324552Y-86330447D01*
X140258230Y-86286132D01*
X140258229Y-86286131D01*
X140199752Y-86274500D01*
X140199748Y-86274500D01*
X138460252Y-86274500D01*
X138460247Y-86274500D01*
X138401770Y-86286131D01*
X138401769Y-86286132D01*
X138335447Y-86330447D01*
X138291132Y-86396769D01*
X138291131Y-86396770D01*
X138279500Y-86455247D01*
X76429121Y-86455247D01*
X76429114Y-82534108D01*
X86674500Y-82534108D01*
X86674500Y-82665891D01*
X86708608Y-82793187D01*
X86741554Y-82850250D01*
X86774500Y-82907314D01*
X86867686Y-83000500D01*
X86981814Y-83066392D01*
X87109108Y-83100500D01*
X87109110Y-83100500D01*
X87240890Y-83100500D01*
X87240892Y-83100500D01*
X87368186Y-83066392D01*
X87482314Y-83000500D01*
X87575500Y-82907314D01*
X87641392Y-82793186D01*
X87675500Y-82665892D01*
X87675500Y-82534108D01*
X87641392Y-82406814D01*
X87575500Y-82292686D01*
X87482314Y-82199500D01*
X87425250Y-82166554D01*
X87368187Y-82133608D01*
X87304539Y-82116554D01*
X87240892Y-82099500D01*
X87109108Y-82099500D01*
X86981812Y-82133608D01*
X86867686Y-82199500D01*
X86867683Y-82199502D01*
X86774502Y-82292683D01*
X86774500Y-82292686D01*
X86708608Y-82406812D01*
X86674500Y-82534108D01*
X76429114Y-82534108D01*
X76429109Y-79659108D01*
X87399500Y-79659108D01*
X87399500Y-79790891D01*
X87433608Y-79918187D01*
X87459924Y-79963766D01*
X87499500Y-80032314D01*
X87592686Y-80125500D01*
X87706814Y-80191392D01*
X87834108Y-80225500D01*
X87834110Y-80225500D01*
X87965890Y-80225500D01*
X87965892Y-80225500D01*
X88093186Y-80191392D01*
X88207314Y-80125500D01*
X88300500Y-80032314D01*
X88340077Y-79963764D01*
X125135739Y-79963764D01*
X125135739Y-80108714D01*
X125157893Y-80191392D01*
X125173256Y-80248727D01*
X125245727Y-80374250D01*
X125245729Y-80374252D01*
X125245730Y-80374254D01*
X125348224Y-80476748D01*
X125348225Y-80476749D01*
X125348227Y-80476750D01*
X125473750Y-80549221D01*
X125473751Y-80549221D01*
X125473754Y-80549223D01*
X125613764Y-80586739D01*
X125613767Y-80586739D01*
X125758711Y-80586739D01*
X125758714Y-80586739D01*
X125898724Y-80549223D01*
X126024254Y-80476748D01*
X126126748Y-80374254D01*
X126199223Y-80248724D01*
X126225000Y-80152525D01*
X129074500Y-80152525D01*
X129074500Y-80297475D01*
X129095074Y-80374256D01*
X129112017Y-80437488D01*
X129184488Y-80563011D01*
X129184490Y-80563013D01*
X129184491Y-80563015D01*
X129286985Y-80665509D01*
X129286986Y-80665510D01*
X129286988Y-80665511D01*
X129412511Y-80737982D01*
X129412512Y-80737982D01*
X129412515Y-80737984D01*
X129552525Y-80775500D01*
X129552528Y-80775500D01*
X129697472Y-80775500D01*
X129697475Y-80775500D01*
X129837485Y-80737984D01*
X129963015Y-80665509D01*
X130065509Y-80563015D01*
X130137984Y-80437485D01*
X130175500Y-80297475D01*
X130175500Y-80152525D01*
X130137984Y-80012515D01*
X130065509Y-79886985D01*
X129963015Y-79784491D01*
X129963013Y-79784490D01*
X129963011Y-79784488D01*
X129837488Y-79712017D01*
X129837489Y-79712017D01*
X129826006Y-79708940D01*
X129697475Y-79674500D01*
X129552525Y-79674500D01*
X129423993Y-79708940D01*
X129412511Y-79712017D01*
X129286988Y-79784488D01*
X129286982Y-79784493D01*
X129184493Y-79886982D01*
X129184488Y-79886988D01*
X129112017Y-80012511D01*
X129112016Y-80012515D01*
X129074500Y-80152525D01*
X126225000Y-80152525D01*
X126236739Y-80108714D01*
X126236739Y-79963764D01*
X126199223Y-79823754D01*
X126180249Y-79790891D01*
X126126750Y-79698227D01*
X126126745Y-79698221D01*
X126024256Y-79595732D01*
X126024250Y-79595727D01*
X125898727Y-79523256D01*
X125898728Y-79523256D01*
X125887245Y-79520179D01*
X125758714Y-79485739D01*
X125613764Y-79485739D01*
X125485232Y-79520179D01*
X125473750Y-79523256D01*
X125348227Y-79595727D01*
X125348221Y-79595732D01*
X125245732Y-79698221D01*
X125245727Y-79698227D01*
X125173256Y-79823750D01*
X125173255Y-79823754D01*
X125135739Y-79963764D01*
X88340077Y-79963764D01*
X88366392Y-79918186D01*
X88400500Y-79790892D01*
X88400500Y-79659108D01*
X88366392Y-79531814D01*
X88361450Y-79523255D01*
X88351108Y-79505342D01*
X88300500Y-79417686D01*
X88207314Y-79324500D01*
X88173967Y-79305247D01*
X138279500Y-79305247D01*
X138279500Y-81044752D01*
X138291131Y-81103229D01*
X138291132Y-81103230D01*
X138335447Y-81169552D01*
X138401769Y-81213867D01*
X138401770Y-81213868D01*
X138460247Y-81225499D01*
X138460250Y-81225500D01*
X138460252Y-81225500D01*
X140199750Y-81225500D01*
X140199751Y-81225499D01*
X140214568Y-81222552D01*
X140258229Y-81213868D01*
X140258229Y-81213867D01*
X140258231Y-81213867D01*
X140324552Y-81169552D01*
X140368867Y-81103231D01*
X140368867Y-81103229D01*
X140368868Y-81103229D01*
X140380499Y-81044752D01*
X140380500Y-81044750D01*
X140380500Y-80071530D01*
X140819500Y-80071530D01*
X140819500Y-80278469D01*
X140859868Y-80481412D01*
X140859870Y-80481420D01*
X140939058Y-80672596D01*
X141054024Y-80844657D01*
X141200342Y-80990975D01*
X141200345Y-80990977D01*
X141372402Y-81105941D01*
X141563580Y-81185130D01*
X141708052Y-81213867D01*
X141766530Y-81225499D01*
X141766534Y-81225500D01*
X141766535Y-81225500D01*
X141973466Y-81225500D01*
X141973467Y-81225499D01*
X142176420Y-81185130D01*
X142367598Y-81105941D01*
X142539655Y-80990977D01*
X142685977Y-80844655D01*
X142800941Y-80672598D01*
X142880130Y-80481420D01*
X142920500Y-80278465D01*
X142920500Y-80071535D01*
X142920499Y-80071530D01*
X143359500Y-80071530D01*
X143359500Y-80278469D01*
X143399868Y-80481412D01*
X143399870Y-80481420D01*
X143479058Y-80672596D01*
X143594024Y-80844657D01*
X143740342Y-80990975D01*
X143740345Y-80990977D01*
X143912402Y-81105941D01*
X144103580Y-81185130D01*
X144248052Y-81213867D01*
X144306530Y-81225499D01*
X144306534Y-81225500D01*
X144306535Y-81225500D01*
X144513466Y-81225500D01*
X144513467Y-81225499D01*
X144716420Y-81185130D01*
X144907598Y-81105941D01*
X145079655Y-80990977D01*
X145225977Y-80844655D01*
X145340941Y-80672598D01*
X145420130Y-80481420D01*
X145460500Y-80278465D01*
X145460500Y-80071535D01*
X145420130Y-79868580D01*
X145340941Y-79677402D01*
X145225977Y-79505345D01*
X145225975Y-79505342D01*
X145079657Y-79359024D01*
X144911655Y-79246770D01*
X144907598Y-79244059D01*
X144802435Y-79200499D01*
X144716420Y-79164870D01*
X144716412Y-79164868D01*
X144513469Y-79124500D01*
X144513465Y-79124500D01*
X144306535Y-79124500D01*
X144306530Y-79124500D01*
X144103587Y-79164868D01*
X144103579Y-79164870D01*
X143912403Y-79244058D01*
X143740342Y-79359024D01*
X143594024Y-79505342D01*
X143479058Y-79677403D01*
X143399870Y-79868579D01*
X143399868Y-79868587D01*
X143359500Y-80071530D01*
X142920499Y-80071530D01*
X142880130Y-79868580D01*
X142800941Y-79677402D01*
X142685977Y-79505345D01*
X142685975Y-79505342D01*
X142539657Y-79359024D01*
X142371655Y-79246770D01*
X142367598Y-79244059D01*
X142262435Y-79200499D01*
X142176420Y-79164870D01*
X142176412Y-79164868D01*
X141973469Y-79124500D01*
X141973465Y-79124500D01*
X141766535Y-79124500D01*
X141766530Y-79124500D01*
X141563587Y-79164868D01*
X141563579Y-79164870D01*
X141372403Y-79244058D01*
X141200342Y-79359024D01*
X141054024Y-79505342D01*
X140939058Y-79677403D01*
X140859870Y-79868579D01*
X140859868Y-79868587D01*
X140819500Y-80071530D01*
X140380500Y-80071530D01*
X140380500Y-79305249D01*
X140380499Y-79305247D01*
X140368868Y-79246770D01*
X140368867Y-79246769D01*
X140324552Y-79180447D01*
X140258230Y-79136132D01*
X140258229Y-79136131D01*
X140199752Y-79124500D01*
X140199748Y-79124500D01*
X138460252Y-79124500D01*
X138460247Y-79124500D01*
X138401770Y-79136131D01*
X138401769Y-79136132D01*
X138335447Y-79180447D01*
X138291132Y-79246769D01*
X138291131Y-79246770D01*
X138279500Y-79305247D01*
X88173967Y-79305247D01*
X88150250Y-79291554D01*
X88093187Y-79258608D01*
X88029539Y-79241554D01*
X87965892Y-79224500D01*
X87834108Y-79224500D01*
X87706812Y-79258608D01*
X87592686Y-79324500D01*
X87592683Y-79324502D01*
X87499502Y-79417683D01*
X87499500Y-79417686D01*
X87433608Y-79531812D01*
X87399500Y-79659108D01*
X76429109Y-79659108D01*
X76429108Y-78734108D01*
X85099500Y-78734108D01*
X85099500Y-78865891D01*
X85133608Y-78993187D01*
X85166554Y-79050250D01*
X85199500Y-79107314D01*
X85292686Y-79200500D01*
X85406814Y-79266392D01*
X85534108Y-79300500D01*
X85534110Y-79300500D01*
X85665890Y-79300500D01*
X85665892Y-79300500D01*
X85793186Y-79266392D01*
X85907314Y-79200500D01*
X86000500Y-79107314D01*
X86066392Y-78993186D01*
X86100500Y-78865892D01*
X86100500Y-78734108D01*
X86066392Y-78606814D01*
X86000500Y-78492686D01*
X85907314Y-78399500D01*
X85850250Y-78366554D01*
X85793187Y-78333608D01*
X85729539Y-78316554D01*
X85665892Y-78299500D01*
X85534108Y-78299500D01*
X85406812Y-78333608D01*
X85292686Y-78399500D01*
X85292683Y-78399502D01*
X85199502Y-78492683D01*
X85199500Y-78492686D01*
X85133608Y-78606812D01*
X85099500Y-78734108D01*
X76429108Y-78734108D01*
X76429105Y-76864899D01*
X81980750Y-76864899D01*
X81980750Y-76990101D01*
X82013155Y-77111036D01*
X82075755Y-77219464D01*
X82164286Y-77307995D01*
X82272714Y-77370595D01*
X82393649Y-77403000D01*
X82393651Y-77403000D01*
X82518849Y-77403000D01*
X82518851Y-77403000D01*
X82639786Y-77370595D01*
X82748214Y-77307995D01*
X82836745Y-77219464D01*
X82899345Y-77111036D01*
X82931750Y-76990101D01*
X82931750Y-76864899D01*
X82899345Y-76743964D01*
X82836745Y-76635536D01*
X82748214Y-76547005D01*
X82725875Y-76534108D01*
X85599500Y-76534108D01*
X85599500Y-76665891D01*
X85633608Y-76793187D01*
X85666554Y-76850250D01*
X85699500Y-76907314D01*
X85792686Y-77000500D01*
X85906814Y-77066392D01*
X86034108Y-77100500D01*
X86034110Y-77100500D01*
X86165890Y-77100500D01*
X86165892Y-77100500D01*
X86293186Y-77066392D01*
X86407314Y-77000500D01*
X86500500Y-76907314D01*
X86566392Y-76793186D01*
X86600500Y-76665892D01*
X86600500Y-76534108D01*
X86566392Y-76406814D01*
X86500500Y-76292686D01*
X86407314Y-76199500D01*
X86350250Y-76166554D01*
X86293187Y-76133608D01*
X86229539Y-76116554D01*
X86165892Y-76099500D01*
X86034108Y-76099500D01*
X85906812Y-76133608D01*
X85792686Y-76199500D01*
X85792683Y-76199502D01*
X85699502Y-76292683D01*
X85699500Y-76292686D01*
X85633608Y-76406812D01*
X85599500Y-76534108D01*
X82725875Y-76534108D01*
X82639786Y-76484405D01*
X82639787Y-76484405D01*
X82599474Y-76473603D01*
X82518851Y-76452000D01*
X82393649Y-76452000D01*
X82313025Y-76473603D01*
X82272713Y-76484405D01*
X82164287Y-76547004D01*
X82164284Y-76547006D01*
X82075756Y-76635534D01*
X82075754Y-76635537D01*
X82013155Y-76743963D01*
X81996952Y-76804431D01*
X81980750Y-76864899D01*
X76429105Y-76864899D01*
X76429101Y-74490691D01*
X85749500Y-74490691D01*
X85749500Y-74609309D01*
X85780201Y-74723886D01*
X85839511Y-74826613D01*
X85923387Y-74910489D01*
X86026114Y-74969799D01*
X86140691Y-75000500D01*
X86140694Y-75000500D01*
X86259306Y-75000500D01*
X86259309Y-75000500D01*
X86373886Y-74969799D01*
X86476613Y-74910489D01*
X86560489Y-74826613D01*
X86619799Y-74723886D01*
X86650500Y-74609309D01*
X86650500Y-74490691D01*
X86619799Y-74376114D01*
X86560489Y-74273387D01*
X86476613Y-74189511D01*
X86373886Y-74130201D01*
X86259309Y-74099500D01*
X86140691Y-74099500D01*
X86026114Y-74130201D01*
X86026112Y-74130201D01*
X86026112Y-74130202D01*
X85923387Y-74189511D01*
X85923384Y-74189513D01*
X85839513Y-74273384D01*
X85839511Y-74273387D01*
X85780201Y-74376114D01*
X85749500Y-74490691D01*
X76429101Y-74490691D01*
X76429099Y-73153191D01*
X84593250Y-73153191D01*
X84593250Y-73271809D01*
X84623951Y-73386386D01*
X84683261Y-73489113D01*
X84767137Y-73572989D01*
X84869864Y-73632299D01*
X84984441Y-73663000D01*
X84984444Y-73663000D01*
X85103056Y-73663000D01*
X85103059Y-73663000D01*
X85217636Y-73632299D01*
X85320363Y-73572989D01*
X85404239Y-73489113D01*
X85463549Y-73386386D01*
X85494250Y-73271809D01*
X85494250Y-73153191D01*
X85463549Y-73038614D01*
X85404239Y-72935887D01*
X85320363Y-72852011D01*
X85217636Y-72792701D01*
X85103059Y-72762000D01*
X84984441Y-72762000D01*
X84869864Y-72792701D01*
X84869862Y-72792701D01*
X84869862Y-72792702D01*
X84767137Y-72852011D01*
X84767134Y-72852013D01*
X84683263Y-72935884D01*
X84683261Y-72935887D01*
X84623951Y-73038614D01*
X84593250Y-73153191D01*
X76429099Y-73153191D01*
X76429095Y-71084899D01*
X81980750Y-71084899D01*
X81980750Y-71210101D01*
X82013155Y-71331036D01*
X82075755Y-71439464D01*
X82164286Y-71527995D01*
X82272714Y-71590595D01*
X82393649Y-71623000D01*
X82393651Y-71623000D01*
X82518849Y-71623000D01*
X82518851Y-71623000D01*
X82639786Y-71590595D01*
X82748214Y-71527995D01*
X82836745Y-71439464D01*
X82899345Y-71331036D01*
X82931750Y-71210101D01*
X82931750Y-71084899D01*
X82899345Y-70963964D01*
X82836745Y-70855536D01*
X82748214Y-70767005D01*
X82639786Y-70704405D01*
X82639787Y-70704405D01*
X82599474Y-70693603D01*
X82518851Y-70672000D01*
X82393649Y-70672000D01*
X82313025Y-70693603D01*
X82272713Y-70704405D01*
X82164287Y-70767004D01*
X82164284Y-70767006D01*
X82075756Y-70855534D01*
X82075754Y-70855537D01*
X82013155Y-70963963D01*
X82013155Y-70963964D01*
X81980750Y-71084899D01*
X76429095Y-71084899D01*
X76429093Y-69877525D01*
X96749500Y-69877525D01*
X96749500Y-70022475D01*
X96787016Y-70162485D01*
X96787017Y-70162488D01*
X96845048Y-70263000D01*
X96861521Y-70330900D01*
X96845048Y-70387000D01*
X96787017Y-70487511D01*
X96787016Y-70487515D01*
X96749500Y-70627525D01*
X96749500Y-70772475D01*
X96771757Y-70855537D01*
X96787017Y-70912488D01*
X96859488Y-71038011D01*
X96859490Y-71038013D01*
X96859491Y-71038015D01*
X96961985Y-71140509D01*
X96961986Y-71140510D01*
X96961988Y-71140511D01*
X97087511Y-71212982D01*
X97087512Y-71212982D01*
X97087515Y-71212984D01*
X97227525Y-71250500D01*
X97227528Y-71250500D01*
X97372472Y-71250500D01*
X97372475Y-71250500D01*
X97512485Y-71212984D01*
X97638015Y-71140509D01*
X97740509Y-71038015D01*
X97812984Y-70912485D01*
X97850500Y-70772475D01*
X97850500Y-70634108D01*
X106999500Y-70634108D01*
X106999500Y-70765892D01*
X107001263Y-70772472D01*
X107033608Y-70893187D01*
X107044750Y-70912485D01*
X107099500Y-71007314D01*
X107192686Y-71100500D01*
X107261987Y-71140511D01*
X107265628Y-71142613D01*
X107313843Y-71193180D01*
X107327065Y-71261788D01*
X107301097Y-71326652D01*
X107265628Y-71357387D01*
X107192686Y-71399500D01*
X107192683Y-71399502D01*
X107099502Y-71492683D01*
X107099500Y-71492686D01*
X107033608Y-71606812D01*
X106999500Y-71734108D01*
X106999500Y-71865891D01*
X107033608Y-71993187D01*
X107046126Y-72014868D01*
X107099500Y-72107314D01*
X107192686Y-72200500D01*
X107306814Y-72266392D01*
X107434108Y-72300500D01*
X107434110Y-72300500D01*
X107565890Y-72300500D01*
X107565892Y-72300500D01*
X107693186Y-72266392D01*
X107807314Y-72200500D01*
X107852567Y-72155247D01*
X138279500Y-72155247D01*
X138279500Y-73894752D01*
X138291131Y-73953229D01*
X138291132Y-73953230D01*
X138335447Y-74019552D01*
X138401769Y-74063867D01*
X138401770Y-74063868D01*
X138460247Y-74075499D01*
X138460250Y-74075500D01*
X138460252Y-74075500D01*
X140199750Y-74075500D01*
X140199751Y-74075499D01*
X140214568Y-74072552D01*
X140258229Y-74063868D01*
X140258229Y-74063867D01*
X140258231Y-74063867D01*
X140324552Y-74019552D01*
X140368867Y-73953231D01*
X140368867Y-73953229D01*
X140368868Y-73953229D01*
X140380499Y-73894752D01*
X140380500Y-73894750D01*
X140380500Y-72921530D01*
X140819500Y-72921530D01*
X140819500Y-73128469D01*
X140859868Y-73331412D01*
X140859870Y-73331420D01*
X140939058Y-73522596D01*
X141054024Y-73694657D01*
X141200342Y-73840975D01*
X141200345Y-73840977D01*
X141372402Y-73955941D01*
X141563580Y-74035130D01*
X141708052Y-74063867D01*
X141766530Y-74075499D01*
X141766534Y-74075500D01*
X141766535Y-74075500D01*
X141973466Y-74075500D01*
X141973467Y-74075499D01*
X142176420Y-74035130D01*
X142367598Y-73955941D01*
X142539655Y-73840977D01*
X142685977Y-73694655D01*
X142800941Y-73522598D01*
X142880130Y-73331420D01*
X142920500Y-73128465D01*
X142920500Y-72921535D01*
X142920499Y-72921530D01*
X143359500Y-72921530D01*
X143359500Y-73128469D01*
X143399868Y-73331412D01*
X143399870Y-73331420D01*
X143479058Y-73522596D01*
X143594024Y-73694657D01*
X143740342Y-73840975D01*
X143740345Y-73840977D01*
X143912402Y-73955941D01*
X144103580Y-74035130D01*
X144248052Y-74063867D01*
X144306530Y-74075499D01*
X144306534Y-74075500D01*
X144306535Y-74075500D01*
X144513466Y-74075500D01*
X144513467Y-74075499D01*
X144716420Y-74035130D01*
X144907598Y-73955941D01*
X145079655Y-73840977D01*
X145225977Y-73694655D01*
X145340941Y-73522598D01*
X145420130Y-73331420D01*
X145460500Y-73128465D01*
X145460500Y-72921535D01*
X145420130Y-72718580D01*
X145340941Y-72527402D01*
X145225977Y-72355345D01*
X145225975Y-72355342D01*
X145079657Y-72209024D01*
X144993626Y-72151541D01*
X144907598Y-72094059D01*
X144890942Y-72087160D01*
X144716420Y-72014870D01*
X144716412Y-72014868D01*
X144513469Y-71974500D01*
X144513465Y-71974500D01*
X144306535Y-71974500D01*
X144306530Y-71974500D01*
X144103587Y-72014868D01*
X144103579Y-72014870D01*
X143912403Y-72094058D01*
X143740342Y-72209024D01*
X143594024Y-72355342D01*
X143479058Y-72527403D01*
X143399870Y-72718579D01*
X143399868Y-72718587D01*
X143359500Y-72921530D01*
X142920499Y-72921530D01*
X142880130Y-72718580D01*
X142800941Y-72527402D01*
X142685977Y-72355345D01*
X142685975Y-72355342D01*
X142539657Y-72209024D01*
X142453626Y-72151541D01*
X142367598Y-72094059D01*
X142350942Y-72087160D01*
X142176420Y-72014870D01*
X142176412Y-72014868D01*
X141973469Y-71974500D01*
X141973465Y-71974500D01*
X141766535Y-71974500D01*
X141766530Y-71974500D01*
X141563587Y-72014868D01*
X141563579Y-72014870D01*
X141372403Y-72094058D01*
X141200342Y-72209024D01*
X141054024Y-72355342D01*
X140939058Y-72527403D01*
X140859870Y-72718579D01*
X140859868Y-72718587D01*
X140819500Y-72921530D01*
X140380500Y-72921530D01*
X140380500Y-72155249D01*
X140380499Y-72155247D01*
X140368868Y-72096770D01*
X140368867Y-72096769D01*
X140324552Y-72030447D01*
X140258230Y-71986132D01*
X140258229Y-71986131D01*
X140199752Y-71974500D01*
X140199748Y-71974500D01*
X138460252Y-71974500D01*
X138460247Y-71974500D01*
X138401770Y-71986131D01*
X138401769Y-71986132D01*
X138335447Y-72030447D01*
X138291132Y-72096769D01*
X138291131Y-72096770D01*
X138279500Y-72155247D01*
X107852567Y-72155247D01*
X107900500Y-72107314D01*
X107966392Y-71993186D01*
X108000500Y-71865892D01*
X108000500Y-71734108D01*
X107966392Y-71606814D01*
X107900500Y-71492686D01*
X107807314Y-71399500D01*
X107734371Y-71357386D01*
X107686156Y-71306820D01*
X107672933Y-71238213D01*
X107698901Y-71173348D01*
X107734372Y-71142613D01*
X107738013Y-71140511D01*
X107807314Y-71100500D01*
X107900500Y-71007314D01*
X107966392Y-70893186D01*
X108000500Y-70765892D01*
X108000500Y-70634108D01*
X107966392Y-70506814D01*
X107900500Y-70392686D01*
X107807314Y-70299500D01*
X107744093Y-70262999D01*
X107693187Y-70233608D01*
X107629539Y-70216554D01*
X107565892Y-70199500D01*
X107434108Y-70199500D01*
X107306812Y-70233608D01*
X107192686Y-70299500D01*
X107192683Y-70299502D01*
X107099502Y-70392683D01*
X107099500Y-70392686D01*
X107033608Y-70506812D01*
X107001264Y-70627525D01*
X106999500Y-70634108D01*
X97850500Y-70634108D01*
X97850500Y-70627525D01*
X97812984Y-70487515D01*
X97754950Y-70386997D01*
X97738478Y-70319101D01*
X97754951Y-70263000D01*
X97812984Y-70162485D01*
X97850500Y-70022475D01*
X97850500Y-69877525D01*
X97812984Y-69737515D01*
X97740509Y-69611985D01*
X97638015Y-69509491D01*
X97638013Y-69509490D01*
X97638011Y-69509488D01*
X97512488Y-69437017D01*
X97512489Y-69437017D01*
X97501006Y-69433940D01*
X97372475Y-69399500D01*
X97227525Y-69399500D01*
X97098993Y-69433940D01*
X97087511Y-69437017D01*
X96961988Y-69509488D01*
X96961982Y-69509493D01*
X96859493Y-69611982D01*
X96859488Y-69611988D01*
X96787017Y-69737511D01*
X96787016Y-69737515D01*
X96749500Y-69877525D01*
X76429093Y-69877525D01*
X76429081Y-62934108D01*
X114199500Y-62934108D01*
X114199500Y-63065891D01*
X114233608Y-63193187D01*
X114266554Y-63250250D01*
X114299500Y-63307314D01*
X114392686Y-63400500D01*
X114506814Y-63466392D01*
X114634108Y-63500500D01*
X114634110Y-63500500D01*
X114765890Y-63500500D01*
X114765892Y-63500500D01*
X114893186Y-63466392D01*
X115007314Y-63400500D01*
X115100500Y-63307314D01*
X115166392Y-63193186D01*
X115200500Y-63065892D01*
X115200500Y-62934108D01*
X115166392Y-62806814D01*
X115100500Y-62692686D01*
X115007314Y-62599500D01*
X114950250Y-62566554D01*
X114893187Y-62533608D01*
X114829539Y-62516554D01*
X114765892Y-62499500D01*
X114634108Y-62499500D01*
X114506812Y-62533608D01*
X114392686Y-62599500D01*
X114392683Y-62599502D01*
X114299502Y-62692683D01*
X114299500Y-62692686D01*
X114233608Y-62806812D01*
X114199500Y-62934108D01*
X76429081Y-62934108D01*
X76429080Y-62130527D01*
X76429141Y-62126633D01*
X76431763Y-62043186D01*
X76439905Y-61784108D01*
X132124500Y-61784108D01*
X132124500Y-61915891D01*
X132158608Y-62043187D01*
X132169868Y-62062689D01*
X132224500Y-62157314D01*
X132317686Y-62250500D01*
X132431814Y-62316392D01*
X132559108Y-62350500D01*
X132559110Y-62350500D01*
X132690890Y-62350500D01*
X132690892Y-62350500D01*
X132818186Y-62316392D01*
X132932314Y-62250500D01*
X133025500Y-62157314D01*
X133091392Y-62043186D01*
X133125500Y-61915892D01*
X133125500Y-61784108D01*
X133091392Y-61656814D01*
X133067764Y-61615890D01*
X133025503Y-61542691D01*
X133025502Y-61542690D01*
X133025500Y-61542686D01*
X132966922Y-61484108D01*
X143349500Y-61484108D01*
X143349500Y-61615891D01*
X143383608Y-61743187D01*
X143416554Y-61800250D01*
X143449500Y-61857314D01*
X143542686Y-61950500D01*
X143656814Y-62016392D01*
X143784108Y-62050500D01*
X143784110Y-62050500D01*
X143915890Y-62050500D01*
X143915892Y-62050500D01*
X144043186Y-62016392D01*
X144157314Y-61950500D01*
X144250500Y-61857314D01*
X144316392Y-61743186D01*
X144350500Y-61615892D01*
X144350500Y-61484108D01*
X144316392Y-61356814D01*
X144250500Y-61242686D01*
X144157314Y-61149500D01*
X144100250Y-61116554D01*
X144043187Y-61083608D01*
X143979539Y-61066554D01*
X143915892Y-61049500D01*
X143784108Y-61049500D01*
X143656812Y-61083608D01*
X143542686Y-61149500D01*
X143542683Y-61149502D01*
X143449502Y-61242683D01*
X143449500Y-61242686D01*
X143383608Y-61356812D01*
X143349500Y-61484108D01*
X132966922Y-61484108D01*
X132932314Y-61449500D01*
X132875250Y-61416554D01*
X132818187Y-61383608D01*
X132718188Y-61356814D01*
X132690892Y-61349500D01*
X132559108Y-61349500D01*
X132431812Y-61383608D01*
X132317686Y-61449500D01*
X132317683Y-61449502D01*
X132224502Y-61542683D01*
X132224500Y-61542686D01*
X132158608Y-61656812D01*
X132124500Y-61784108D01*
X76439905Y-61784108D01*
X76447703Y-61535981D01*
X76448189Y-61528241D01*
X76503622Y-60941828D01*
X76504595Y-60934131D01*
X76596738Y-60352365D01*
X76598184Y-60344782D01*
X76726680Y-59769922D01*
X76728609Y-59762415D01*
X76892933Y-59196807D01*
X76895337Y-59189410D01*
X77094854Y-58635230D01*
X77097706Y-58628028D01*
X77331634Y-58087451D01*
X77334938Y-58080430D01*
X77602344Y-57555615D01*
X77606084Y-57548813D01*
X77905913Y-57041830D01*
X77910068Y-57035283D01*
X78241140Y-56548125D01*
X78245696Y-56541854D01*
X78606707Y-56076441D01*
X78611658Y-56070457D01*
X78759865Y-55902349D01*
X79001188Y-55628621D01*
X79006490Y-55622976D01*
X79422977Y-55206489D01*
X79428622Y-55201187D01*
X79870460Y-54811654D01*
X79876461Y-54806692D01*
X80341839Y-54445707D01*
X80348125Y-54441140D01*
X80835284Y-54110068D01*
X80841831Y-54105913D01*
X81348814Y-53806084D01*
X81355616Y-53802344D01*
X81880432Y-53534936D01*
X81887452Y-53531633D01*
X82428029Y-53297704D01*
X82435230Y-53294854D01*
X82989449Y-53095323D01*
X82996780Y-53092941D01*
X83562416Y-52928609D01*
X83569923Y-52926680D01*
X84144783Y-52798184D01*
X84152385Y-52796734D01*
X84734124Y-52704596D01*
X84741841Y-52703620D01*
X85328241Y-52648189D01*
X85335979Y-52647703D01*
X85926639Y-52629141D01*
X85930534Y-52629080D01*
X85994472Y-52629080D01*
X155934860Y-52629080D01*
X155938754Y-52629140D01*
G37*
%TD.AperFunction*%
%TD*%
M02*
