%TF.GenerationSoftware,KiCad,Pcbnew,9.0.2*%
%TF.CreationDate,2025-06-16T16:22:31-03:00*%
%TF.ProjectId,dataLogger,64617461-4c6f-4676-9765-722e6b696361,rev?*%
%TF.SameCoordinates,Original*%
%TF.FileFunction,Paste,Top*%
%TF.FilePolarity,Positive*%
%FSLAX46Y46*%
G04 Gerber Fmt 4.6, Leading zero omitted, Abs format (unit mm)*
G04 Created by KiCad (PCBNEW 9.0.2) date 2025-06-16 16:22:31*
%MOMM*%
%LPD*%
G01*
G04 APERTURE LIST*
G04 Aperture macros list*
%AMRoundRect*
0 Rectangle with rounded corners*
0 $1 Rounding radius*
0 $2 $3 $4 $5 $6 $7 $8 $9 X,Y pos of 4 corners*
0 Add a 4 corners polygon primitive as box body*
4,1,4,$2,$3,$4,$5,$6,$7,$8,$9,$2,$3,0*
0 Add four circle primitives for the rounded corners*
1,1,$1+$1,$2,$3*
1,1,$1+$1,$4,$5*
1,1,$1+$1,$6,$7*
1,1,$1+$1,$8,$9*
0 Add four rect primitives between the rounded corners*
20,1,$1+$1,$2,$3,$4,$5,0*
20,1,$1+$1,$4,$5,$6,$7,0*
20,1,$1+$1,$6,$7,$8,$9,0*
20,1,$1+$1,$8,$9,$2,$3,0*%
G04 Aperture macros list end*
%ADD10C,0.010000*%
%ADD11R,7.460000X6.470000*%
%ADD12RoundRect,0.250000X-0.250000X-0.475000X0.250000X-0.475000X0.250000X0.475000X-0.250000X0.475000X0*%
%ADD13RoundRect,0.250000X-0.475000X0.250000X-0.475000X-0.250000X0.475000X-0.250000X0.475000X0.250000X0*%
%ADD14RoundRect,0.033750X0.346250X0.101250X-0.346250X0.101250X-0.346250X-0.101250X0.346250X-0.101250X0*%
%ADD15R,1.400000X2.100000*%
%ADD16RoundRect,0.250000X-0.262500X-0.450000X0.262500X-0.450000X0.262500X0.450000X-0.262500X0.450000X0*%
%ADD17RoundRect,0.250000X0.250000X0.475000X-0.250000X0.475000X-0.250000X-0.475000X0.250000X-0.475000X0*%
%ADD18R,1.500000X0.900000*%
%ADD19R,0.900000X1.500000*%
%ADD20R,0.900000X0.900000*%
%ADD21RoundRect,0.150000X0.150000X-0.587500X0.150000X0.587500X-0.150000X0.587500X-0.150000X-0.587500X0*%
%ADD22RoundRect,0.250000X0.475000X-0.250000X0.475000X0.250000X-0.475000X0.250000X-0.475000X-0.250000X0*%
%ADD23RoundRect,0.243750X0.456250X-0.243750X0.456250X0.243750X-0.456250X0.243750X-0.456250X-0.243750X0*%
%ADD24RoundRect,0.250000X0.262500X0.450000X-0.262500X0.450000X-0.262500X-0.450000X0.262500X-0.450000X0*%
%ADD25RoundRect,0.250000X0.450000X-0.262500X0.450000X0.262500X-0.450000X0.262500X-0.450000X-0.262500X0*%
%ADD26RoundRect,0.073750X-0.531250X-0.221250X0.531250X-0.221250X0.531250X0.221250X-0.531250X0.221250X0*%
%ADD27RoundRect,0.250000X-0.450000X0.262500X-0.450000X-0.262500X0.450000X-0.262500X0.450000X0.262500X0*%
%ADD28RoundRect,0.243750X0.243750X0.456250X-0.243750X0.456250X-0.243750X-0.456250X0.243750X-0.456250X0*%
%ADD29R,2.750000X0.950000*%
%ADD30R,2.750000X3.250000*%
%ADD31RoundRect,0.243750X-0.243750X-0.456250X0.243750X-0.456250X0.243750X0.456250X-0.243750X0.456250X0*%
%ADD32R,1.150000X0.600000*%
%ADD33R,1.150000X0.300000*%
%ADD34R,2.000000X2.180000*%
%ADD35R,1.950000X1.050000*%
%ADD36RoundRect,0.035000X-0.700000X-0.105000X0.700000X-0.105000X0.700000X0.105000X-0.700000X0.105000X0*%
G04 APERTURE END LIST*
D10*
%TO.C,U6*%
X100720000Y-92185000D02*
X100160000Y-92185000D01*
X100160000Y-91365000D01*
X100720000Y-91365000D01*
X100720000Y-92185000D01*
G36*
X100720000Y-92185000D02*
G01*
X100160000Y-92185000D01*
X100160000Y-91365000D01*
X100720000Y-91365000D01*
X100720000Y-92185000D01*
G37*
%TD*%
D11*
%TO.C,BT1*%
X160070000Y-121400000D03*
X80730000Y-121400000D03*
%TD*%
D12*
%TO.C,C11*%
X103225000Y-91800000D03*
X105125000Y-91800000D03*
%TD*%
D13*
%TO.C,C1*%
X139000000Y-66150000D03*
X139000000Y-68050000D03*
%TD*%
D14*
%TO.C,U6*%
X101425000Y-92525000D03*
X101425000Y-92025000D03*
X101425000Y-91525000D03*
X101425000Y-91025000D03*
X99455000Y-91025000D03*
X99455000Y-91525000D03*
X99455000Y-92025000D03*
X99455000Y-92525000D03*
%TD*%
D15*
%TO.C,SW2*%
X146350000Y-63850000D03*
X150850000Y-63850000D03*
X146350000Y-54750000D03*
X150850000Y-54750000D03*
%TD*%
D16*
%TO.C,R8*%
X134687500Y-102600000D03*
X136512500Y-102600000D03*
%TD*%
D17*
%TO.C,C7*%
X103875000Y-55275000D03*
X101975000Y-55275000D03*
%TD*%
D18*
%TO.C,U2*%
X112491239Y-60480000D03*
X112491239Y-61750000D03*
X112491239Y-63020000D03*
X112491239Y-64290000D03*
X112491239Y-65560000D03*
X112491239Y-66830000D03*
X112491239Y-68100000D03*
X112491239Y-69370000D03*
X112491239Y-70640000D03*
X112491239Y-71910000D03*
X112491239Y-73180000D03*
X112491239Y-74450000D03*
X112491239Y-75720000D03*
X112491239Y-76990000D03*
D19*
X114256239Y-78240000D03*
X115526239Y-78240000D03*
X116796239Y-78240000D03*
X118066239Y-78240000D03*
X119336239Y-78240000D03*
X120606239Y-78240000D03*
X121876239Y-78240000D03*
X123146239Y-78240000D03*
X124416239Y-78240000D03*
X125686239Y-78240000D03*
X126956239Y-78240000D03*
X128226239Y-78240000D03*
D18*
X129991239Y-76990000D03*
X129991239Y-75720000D03*
X129991239Y-74450000D03*
X129991239Y-73180000D03*
X129991239Y-71910000D03*
X129991239Y-70640000D03*
X129991239Y-69370000D03*
X129991239Y-68100000D03*
X129991239Y-66830000D03*
X129991239Y-65560000D03*
X129991239Y-64290000D03*
X129991239Y-63020000D03*
X129991239Y-61750000D03*
X129991239Y-60480000D03*
D20*
X119741239Y-68200000D03*
X118341239Y-68200000D03*
X121141239Y-68200000D03*
X118341239Y-69600000D03*
X119741239Y-69600000D03*
X121141239Y-69600000D03*
X118341239Y-66800000D03*
X119741239Y-66800000D03*
X121141239Y-66800000D03*
%TD*%
D21*
%TO.C,Q1*%
X97800000Y-68037500D03*
X99700000Y-68037500D03*
X98750000Y-66162500D03*
%TD*%
D13*
%TO.C,C4*%
X148700000Y-66150000D03*
X148700000Y-68050000D03*
%TD*%
D22*
%TO.C,C3*%
X110500000Y-60150000D03*
X110500000Y-58250000D03*
%TD*%
D23*
%TO.C,D6*%
X123000000Y-87675000D03*
X123000000Y-85800000D03*
%TD*%
D24*
%TO.C,R14*%
X95925000Y-55725000D03*
X94100000Y-55725000D03*
%TD*%
D25*
%TO.C,R1*%
X141250000Y-68032500D03*
X141250000Y-66207500D03*
%TD*%
D13*
%TO.C,C6*%
X95400000Y-95650000D03*
X95400000Y-97550000D03*
%TD*%
D12*
%TO.C,C5*%
X101450000Y-65200000D03*
X103350000Y-65200000D03*
%TD*%
D26*
%TO.C,U7*%
X90545000Y-75400000D03*
X90545000Y-76350000D03*
X90545000Y-77300000D03*
X93055000Y-77300000D03*
X93055000Y-76350000D03*
X93055000Y-75400000D03*
%TD*%
D27*
%TO.C,R7*%
X117400000Y-81987500D03*
X117400000Y-83812500D03*
%TD*%
D28*
%TO.C,D3*%
X91562500Y-69700000D03*
X89687500Y-69700000D03*
%TD*%
D29*
%TO.C,IC1*%
X99800000Y-58100000D03*
X99800000Y-60400000D03*
X99800000Y-62700000D03*
D30*
X105000000Y-60400000D03*
%TD*%
D31*
%TO.C,D7*%
X90275000Y-55625000D03*
X92150000Y-55625000D03*
%TD*%
D24*
%TO.C,R13*%
X104312500Y-87975000D03*
X102487500Y-87975000D03*
%TD*%
D17*
%TO.C,C10*%
X85875000Y-82600000D03*
X83975000Y-82600000D03*
%TD*%
D27*
%TO.C,R9*%
X120200000Y-81987500D03*
X120200000Y-83812500D03*
%TD*%
D23*
%TO.C,D2*%
X117400000Y-87675000D03*
X117400000Y-85800000D03*
%TD*%
D13*
%TO.C,C2*%
X110200000Y-61850000D03*
X110200000Y-63750000D03*
%TD*%
D16*
%TO.C,R12*%
X89687500Y-67400000D03*
X91512500Y-67400000D03*
%TD*%
D25*
%TO.C,R4*%
X150850000Y-67975000D03*
X150850000Y-66150000D03*
%TD*%
D23*
%TO.C,D5*%
X120200000Y-87675000D03*
X120200000Y-85800000D03*
%TD*%
D32*
%TO.C,J3*%
X83531250Y-70837500D03*
X83531250Y-71637500D03*
D33*
X83531250Y-72787500D03*
X83531250Y-73787500D03*
X83531250Y-74287500D03*
X83531250Y-75287500D03*
D32*
X83531250Y-77237500D03*
X83531250Y-76437500D03*
D33*
X83531250Y-75787500D03*
X83531250Y-74787500D03*
X83531250Y-73287500D03*
X83531250Y-72287500D03*
D34*
X82956250Y-68927500D03*
X82956250Y-79147500D03*
X79026250Y-68927500D03*
X79026250Y-79147500D03*
%TD*%
D24*
%TO.C,R5*%
X135862500Y-80175000D03*
X134037500Y-80175000D03*
%TD*%
D35*
%TO.C,U5*%
X138800000Y-92575000D03*
X138800000Y-94575000D03*
X138800000Y-96575000D03*
X138800000Y-98575000D03*
X138800000Y-100575000D03*
X138800000Y-102575000D03*
X138800000Y-104575000D03*
X138800000Y-106575000D03*
X153600000Y-106575000D03*
X153600000Y-104575000D03*
X153600000Y-102575000D03*
X153600000Y-100575000D03*
X153600000Y-98575000D03*
X153600000Y-96575000D03*
X153600000Y-94575000D03*
X153600000Y-92575000D03*
%TD*%
D15*
%TO.C,SW1*%
X136750000Y-63850000D03*
X141250000Y-63850000D03*
X136750000Y-54750000D03*
X141250000Y-54750000D03*
%TD*%
D36*
%TO.C,U3*%
X88850000Y-94025000D03*
X88850000Y-94525000D03*
X88850000Y-95025000D03*
X88850000Y-95525000D03*
X88850000Y-96025000D03*
X93150000Y-96025000D03*
X93150000Y-95525000D03*
X93150000Y-95025000D03*
X93150000Y-94525000D03*
X93150000Y-94025000D03*
%TD*%
D16*
%TO.C,R10*%
X90387500Y-73000000D03*
X92212500Y-73000000D03*
%TD*%
D12*
%TO.C,C8*%
X156525000Y-97225000D03*
X158425000Y-97225000D03*
%TD*%
D25*
%TO.C,R6*%
X135025000Y-87325000D03*
X135025000Y-85500000D03*
%TD*%
D24*
%TO.C,R15*%
X91375000Y-80875000D03*
X89550000Y-80875000D03*
%TD*%
D12*
%TO.C,C9*%
X156500000Y-95000000D03*
X158400000Y-95000000D03*
%TD*%
D27*
%TO.C,R11*%
X123000000Y-81987500D03*
X123000000Y-83812500D03*
%TD*%
M02*
